<svg width="180" height="32" viewBox="0 0 180 32" fill="none" xmlns="http://www.w3.org/2000/svg">
<g clip-path="url(#clip0_239_3826)">
<g filter="url(#filter0_dd_239_3826)">
<rect y="1" width="180" height="30" rx="15" fill="url(#paint0_linear_239_3826)"/>
<rect x="0.5" y="1.5" width="179" height="29" rx="14.5" stroke="#C7C7C7"/>
</g>
<path d="M38.4076 17.915C38.4276 17.805 38.5126 17.75 38.6626 17.75C38.8226 17.75 38.9026 17.795 38.9026 17.885L38.7826 19.97C38.7826 20.05 38.7026 20.09 38.5426 20.09C38.3926 20.09 38.3176 20.05 38.3176 19.97V19.61C37.3376 20 36.3776 20.195 35.4376 20.195C33.7176 20.195 32.2876 19.765 31.1476 18.905C30.0076 18.035 29.4376 16.835 29.4376 15.305C29.4376 14.155 29.7376 13.15 30.3376 12.29C30.9376 11.42 31.6976 10.78 32.6176 10.37C33.5376 9.95 34.4776 9.74 35.4376 9.74C36.4076 9.74 37.2726 9.935 38.0326 10.325V9.98C38.0326 9.89 38.1026 9.845 38.2426 9.845C38.3926 9.845 38.4676 9.89 38.4676 9.98C38.4676 10.79 38.5176 11.53 38.6176 12.2C38.6376 12.3 38.5626 12.35 38.3926 12.35C38.2226 12.35 38.1326 12.3 38.1226 12.2L38.0026 11.495C37.2226 10.775 36.2876 10.415 35.1976 10.415C34.1176 10.415 33.1976 10.815 32.4376 11.615C31.6776 12.405 31.2976 13.53 31.2976 14.99C31.2976 16.44 31.6976 17.56 32.4976 18.35C33.3076 19.13 34.3176 19.52 35.5276 19.52C36.5076 19.52 37.4376 19.22 38.3176 18.62L38.4076 17.915ZM42.556 13.01L42.526 14.36H42.556C42.786 14.11 43.101 13.865 43.501 13.625C43.901 13.375 44.256 13.25 44.566 13.25C44.876 13.25 45.096 13.31 45.226 13.43C45.356 13.55 45.421 13.7 45.421 13.88C45.421 14.05 45.361 14.22 45.241 14.39C45.121 14.56 44.956 14.69 44.746 14.78C44.366 14.45 43.981 14.285 43.591 14.285C43.211 14.285 42.871 14.48 42.571 14.87V18.23C42.571 19.11 42.676 19.55 42.886 19.55H43.621C43.701 19.55 43.741 19.625 43.741 19.775C43.741 19.925 43.711 20 43.651 20L42.016 19.985L40.276 20.03C40.206 20.03 40.171 19.955 40.171 19.805C40.171 19.655 40.196 19.58 40.246 19.58H41.116C41.236 19.58 41.296 19.495 41.296 19.325V15.8C41.296 14.83 41.156 14.345 40.876 14.345H40.576C40.496 14.345 40.456 14.27 40.456 14.12C40.456 13.97 40.486 13.895 40.546 13.895C40.816 13.895 41.086 13.81 41.356 13.64C41.626 13.46 41.846 13.28 42.016 13.1C42.196 12.92 42.306 12.83 42.346 12.83C42.486 12.83 42.556 12.89 42.556 13.01ZM49.6004 18.92C49.9804 18.92 50.3104 18.88 50.5904 18.8C50.8704 18.72 51.0754 18.63 51.2054 18.53L51.5354 18.26C51.6354 18.18 51.7104 18.14 51.7604 18.14C51.8704 18.14 51.9254 18.2 51.9254 18.32C51.9254 18.54 51.7304 18.88 51.3404 19.34C51.1504 19.57 50.8654 19.77 50.4854 19.94C50.1054 20.11 49.6804 20.195 49.2104 20.195C48.3304 20.195 47.5904 19.865 46.9904 19.205C46.3904 18.545 46.0904 17.785 46.0904 16.925C46.0904 15.845 46.4454 14.965 47.1554 14.285C47.8654 13.605 48.6504 13.265 49.5104 13.265C50.1604 13.265 50.7054 13.5 51.1454 13.97C51.5954 14.43 51.8204 15.04 51.8204 15.8C51.8204 15.96 51.7854 16.075 51.7154 16.145C51.6454 16.205 51.4854 16.245 51.2354 16.265C50.9854 16.275 50.3754 16.285 49.4054 16.295C48.4354 16.305 47.6004 16.33 46.9004 16.37C46.9004 17.22 47.1754 17.86 47.7254 18.29C48.2854 18.71 48.9104 18.92 49.6004 18.92ZM50.5454 15.335C50.5454 14.995 50.4054 14.7 50.1254 14.45C49.8454 14.2 49.4804 14.075 49.0304 14.075C48.5904 14.075 48.1604 14.24 47.7404 14.57C47.3204 14.89 47.0554 15.335 46.9454 15.905C47.2054 15.875 47.7304 15.83 48.5204 15.77C49.3104 15.7 49.8454 15.65 50.1254 15.62C50.4054 15.58 50.5454 15.485 50.5454 15.335ZM58.1177 15.14C58.1177 15.14 58.0677 16.145 57.9677 18.155C57.9677 18.825 58.1877 19.16 58.6277 19.16C58.8077 19.16 58.9577 19.11 59.0777 19.01C59.2077 18.9 59.2827 18.845 59.3027 18.845C59.4027 18.845 59.4527 18.895 59.4527 18.995C59.4527 19.255 59.3027 19.515 59.0027 19.775C58.7127 20.035 58.3877 20.165 58.0277 20.165C57.6677 20.165 57.3927 20.02 57.2027 19.73C57.0227 19.43 56.9327 19.065 56.9327 18.635C56.9327 18.595 56.9327 18.55 56.9327 18.5H56.8877C56.7077 18.99 56.4027 19.395 55.9727 19.715C55.5427 20.035 55.0877 20.195 54.6077 20.195C54.1377 20.195 53.7777 20.1 53.5277 19.91C53.2877 19.71 53.1677 19.43 53.1677 19.07C53.1677 18.5 53.4927 17.965 54.1427 17.465C54.7927 16.965 55.6977 16.545 56.8577 16.205C56.8777 15.865 56.8877 15.665 56.8877 15.605C56.8877 15.065 56.7827 14.62 56.5727 14.27C56.3727 13.92 56.0677 13.745 55.6577 13.745C55.2477 13.745 54.9127 13.865 54.6527 14.105C54.4027 14.335 54.2777 14.67 54.2777 15.11C54.2777 15.25 54.2827 15.36 54.2927 15.44C54.2227 15.54 54.0877 15.59 53.8877 15.59C53.6877 15.59 53.5127 15.53 53.3627 15.41C53.2127 15.29 53.1377 15.115 53.1377 14.885C53.1377 14.435 53.4227 14.05 53.9927 13.73C54.5627 13.41 55.1627 13.25 55.7927 13.25C57.3427 13.25 58.1177 13.88 58.1177 15.14ZM55.2227 19.37C55.6327 19.37 55.9977 19.125 56.3177 18.635C56.6377 18.145 56.8177 17.48 56.8577 16.64C56.0077 16.95 55.4127 17.27 55.0727 17.6C54.7327 17.93 54.5627 18.285 54.5627 18.665C54.5627 19.135 54.7827 19.37 55.2227 19.37ZM60.6835 18.2V14.015H59.9185C59.8185 14.015 59.7685 13.945 59.7685 13.805C59.7685 13.655 59.8085 13.575 59.8885 13.565C60.3385 13.475 60.7035 13.255 60.9835 12.905C61.2635 12.555 61.5035 12.095 61.7035 11.525C61.7235 11.455 61.7835 11.42 61.8835 11.42C61.9935 11.42 62.0485 11.48 62.0485 11.6C62.0485 11.71 62.0335 11.96 62.0035 12.35C61.9735 12.73 61.9585 13.095 61.9585 13.445H63.8185C63.9185 13.445 63.9685 13.54 63.9685 13.73C63.9685 13.92 63.9285 14.015 63.8485 14.015H61.9585V17.87C61.9585 18.36 62.0435 18.72 62.2135 18.95C62.3835 19.18 62.6685 19.295 63.0685 19.295C63.4085 19.295 63.6835 19.15 63.8935 18.86C63.9735 18.76 64.0335 18.71 64.0735 18.71C64.1735 18.71 64.2235 18.755 64.2235 18.845C64.2235 19.115 64.0485 19.415 63.6985 19.745C63.3485 20.075 62.9085 20.24 62.3785 20.24C61.8585 20.24 61.4435 20.065 61.1335 19.715C60.8335 19.365 60.6835 18.86 60.6835 18.2ZM66.7119 19.985L64.9719 20.03C64.9019 20.03 64.8669 19.955 64.8669 19.805C64.8669 19.655 64.8919 19.58 64.9419 19.58H65.8119C65.9319 19.58 65.9919 19.495 65.9919 19.325V15.8C65.9919 14.83 65.8519 14.345 65.5719 14.345H65.2719C65.1919 14.345 65.1519 14.27 65.1519 14.12C65.1519 13.97 65.1819 13.895 65.2419 13.895C65.7019 13.895 66.2019 13.63 66.7419 13.1C66.9319 12.92 67.0519 12.83 67.1019 12.83C67.2519 12.83 67.3269 12.89 67.3269 13.01C67.3269 13.09 67.3169 13.36 67.2969 13.82C67.2769 14.27 67.2669 14.845 67.2669 15.545V18.23C67.2669 19.11 67.3719 19.55 67.5819 19.55H68.3169C68.3969 19.55 68.4369 19.625 68.4369 19.775C68.4369 19.925 68.4069 20 68.3469 20L66.7119 19.985ZM67.2519 10.43C67.2519 10.65 67.1769 10.84 67.0269 11C66.8769 11.15 66.6919 11.225 66.4719 11.225C66.2519 11.225 66.0569 11.15 65.8869 11C65.7269 10.85 65.6469 10.665 65.6469 10.445C65.6469 10.215 65.7219 10.02 65.8719 9.86C66.0319 9.7 66.2219 9.62 66.4419 9.62C66.6719 9.62 66.8619 9.7 67.0119 9.86C67.1719 10.01 67.2519 10.2 67.2519 10.43ZM71.7646 13.01L71.7346 14.18H71.7646C72.0646 13.9 72.4146 13.675 72.8146 13.505C73.2146 13.335 73.5796 13.25 73.9096 13.25C75.5696 13.25 76.3996 14.21 76.3996 16.13V18.23C76.3996 19.11 76.5046 19.55 76.7146 19.55H77.4496C77.5296 19.55 77.5696 19.625 77.5696 19.775C77.5696 19.925 77.5396 20 77.4796 20C77.4796 20 76.9346 19.995 75.8446 19.985L74.1046 20.03C74.0346 20.03 73.9996 19.955 73.9996 19.805C73.9996 19.655 74.0246 19.58 74.0746 19.58H74.9446C75.0646 19.58 75.1246 19.495 75.1246 19.325V16.79C75.1246 15.77 74.9846 15.065 74.7046 14.675C74.4346 14.275 73.9696 14.075 73.3096 14.075C72.6496 14.075 72.1396 14.275 71.7796 14.675V18.23C71.7796 19.11 71.8846 19.55 72.0946 19.55H72.8296C72.9096 19.55 72.9496 19.625 72.9496 19.775C72.9496 19.925 72.9196 20 72.8596 20L71.2246 19.985L69.4846 20.03C69.4146 20.03 69.3796 19.955 69.3796 19.805C69.3796 19.655 69.4046 19.58 69.4546 19.58H70.3246C70.4446 19.58 70.5046 19.495 70.5046 19.325V15.8C70.5046 14.83 70.3646 14.345 70.0846 14.345H69.7846C69.7046 14.345 69.6646 14.27 69.6646 14.12C69.6646 13.97 69.6946 13.895 69.7546 13.895C70.0246 13.895 70.2946 13.81 70.5646 13.64C70.8346 13.46 71.0546 13.28 71.2246 13.1C71.4046 12.92 71.5146 12.83 71.5546 12.83C71.6946 12.83 71.7646 12.89 71.7646 13.01ZM80.9838 19.46L82.7538 19.385C83.4738 19.385 84.0688 19.525 84.5388 19.805C85.0188 20.085 85.2588 20.505 85.2588 21.065C85.2588 21.865 84.7888 22.585 83.8488 23.225C82.9088 23.875 81.9038 24.2 80.8338 24.2C79.1938 24.2 78.3738 23.705 78.3738 22.715C78.3738 22.305 78.5638 21.89 78.9438 21.47C79.3238 21.05 79.7738 20.75 80.2938 20.57V20.525C79.2438 20.395 78.7188 20.025 78.7188 19.415C78.7188 19.165 78.8388 18.895 79.0788 18.605C79.3188 18.305 79.6788 18.1 80.1588 17.99V17.96C79.6988 17.79 79.3238 17.505 79.0338 17.105C78.7538 16.705 78.6138 16.26 78.6138 15.77C78.6138 15.01 78.8838 14.4 79.4238 13.94C79.9638 13.48 80.6088 13.25 81.3588 13.25C82.1188 13.25 82.7638 13.54 83.2938 14.12C83.7538 13.58 84.2088 13.31 84.6588 13.31C84.9088 13.31 85.1038 13.375 85.2438 13.505C85.3938 13.635 85.4688 13.815 85.4688 14.045C85.4688 14.275 85.3288 14.47 85.0488 14.63C84.6788 14.33 84.3538 14.18 84.0738 14.18C83.9738 14.18 83.8738 14.21 83.7738 14.27C83.6738 14.33 83.6238 14.385 83.6238 14.435C83.6238 14.475 83.6738 14.63 83.7738 14.9C83.8838 15.16 83.9388 15.44 83.9388 15.74C83.9388 16.54 83.6888 17.14 83.1888 17.54C82.6888 17.94 82.0488 18.15 81.2688 18.17C80.9088 18.17 80.5988 18.22 80.3388 18.32C79.8788 18.51 79.6488 18.73 79.6488 18.98C79.6488 19.3 80.0938 19.46 80.9838 19.46ZM82.4088 20.495L81.0438 20.57C80.6038 20.73 80.2338 20.98 79.9338 21.32C79.6338 21.67 79.4838 22.04 79.4838 22.43C79.4838 23.26 80.0488 23.675 81.1788 23.675C81.8488 23.675 82.5238 23.465 83.2038 23.045C83.8938 22.625 84.2388 22.115 84.2388 21.515C84.2388 21.165 84.0588 20.905 83.6988 20.735C83.3488 20.575 82.9188 20.495 82.4088 20.495ZM81.2388 17.675C82.1888 17.675 82.6638 17.03 82.6638 15.74C82.6638 15.2 82.5538 14.735 82.3338 14.345C82.1238 13.945 81.7688 13.745 81.2688 13.745C80.3488 13.745 79.8888 14.41 79.8888 15.74C79.8888 16.27 79.9938 16.725 80.2038 17.105C80.4138 17.485 80.7588 17.675 81.2388 17.675ZM90.7567 18.2V14.015H89.9917C89.8917 14.015 89.8417 13.945 89.8417 13.805C89.8417 13.655 89.8817 13.575 89.9617 13.565C90.4117 13.475 90.7767 13.255 91.0567 12.905C91.3367 12.555 91.5767 12.095 91.7767 11.525C91.7967 11.455 91.8567 11.42 91.9567 11.42C92.0667 11.42 92.1217 11.48 92.1217 11.6C92.1217 11.71 92.1067 11.96 92.0767 12.35C92.0467 12.73 92.0317 13.095 92.0317 13.445H93.8917C93.9917 13.445 94.0417 13.54 94.0417 13.73C94.0417 13.92 94.0017 14.015 93.9217 14.015H92.0317V17.87C92.0317 18.36 92.1167 18.72 92.2867 18.95C92.4567 19.18 92.7417 19.295 93.1417 19.295C93.4817 19.295 93.7567 19.15 93.9667 18.86C94.0467 18.76 94.1067 18.71 94.1467 18.71C94.2467 18.71 94.2967 18.755 94.2967 18.845C94.2967 19.115 94.1217 19.415 93.7717 19.745C93.4217 20.075 92.9817 20.24 92.4517 20.24C91.9317 20.24 91.5167 20.065 91.2067 19.715C90.9067 19.365 90.7567 18.86 90.7567 18.2ZM97.4151 8.975L97.4001 14.15H97.4151C97.7151 13.88 98.0601 13.665 98.4501 13.505C98.8401 13.335 99.2001 13.25 99.5301 13.25C101.24 13.25 102.095 14.21 102.095 16.13V18.23C102.095 19.11 102.2 19.55 102.41 19.55H103.145C103.225 19.55 103.265 19.625 103.265 19.775C103.265 19.925 103.235 20 103.175 20C103.175 20 102.63 19.995 101.54 19.985L99.8001 20.03C99.7301 20.03 99.6951 19.955 99.6951 19.805C99.6951 19.655 99.7201 19.58 99.7701 19.58H100.64C100.76 19.58 100.82 19.495 100.82 19.325V16.79C100.82 15.78 100.675 15.075 100.385 14.675C100.095 14.275 99.6151 14.075 98.9451 14.075C98.2751 14.075 97.7601 14.275 97.4001 14.675V18.23C97.4001 19.11 97.5051 19.55 97.7151 19.55H98.4501C98.5301 19.55 98.5701 19.625 98.5701 19.775C98.5701 19.925 98.5401 20 98.4801 20L96.8451 19.985L95.1051 20.03C95.0351 20.03 95.0001 19.955 95.0001 19.805C95.0001 19.655 95.0251 19.58 95.0751 19.58H95.9451C96.0651 19.58 96.1251 19.495 96.1251 19.325V11.24C96.1251 10.27 96.0001 9.785 95.7501 9.785H95.0751C94.9951 9.785 94.9551 9.71 94.9551 9.56C94.9551 9.41 94.9851 9.335 95.0451 9.335C95.4651 9.335 95.7951 9.3 96.0351 9.23C96.2851 9.15 96.4601 9.095 96.5601 9.065C96.6601 9.025 96.7801 8.975 96.9201 8.915C97.0701 8.845 97.1601 8.805 97.1901 8.795C97.3401 8.795 97.4151 8.855 97.4151 8.975ZM107.667 18.92C108.047 18.92 108.377 18.88 108.657 18.8C108.937 18.72 109.142 18.63 109.272 18.53L109.602 18.26C109.702 18.18 109.777 18.14 109.827 18.14C109.937 18.14 109.992 18.2 109.992 18.32C109.992 18.54 109.797 18.88 109.407 19.34C109.217 19.57 108.932 19.77 108.552 19.94C108.172 20.11 107.747 20.195 107.277 20.195C106.397 20.195 105.657 19.865 105.057 19.205C104.457 18.545 104.157 17.785 104.157 16.925C104.157 15.845 104.512 14.965 105.222 14.285C105.932 13.605 106.717 13.265 107.577 13.265C108.227 13.265 108.772 13.5 109.212 13.97C109.662 14.43 109.887 15.04 109.887 15.8C109.887 15.96 109.852 16.075 109.782 16.145C109.712 16.205 109.552 16.245 109.302 16.265C109.052 16.275 108.442 16.285 107.472 16.295C106.502 16.305 105.667 16.33 104.967 16.37C104.967 17.22 105.242 17.86 105.792 18.29C106.352 18.71 106.977 18.92 107.667 18.92ZM108.612 15.335C108.612 14.995 108.472 14.7 108.192 14.45C107.912 14.2 107.547 14.075 107.097 14.075C106.657 14.075 106.227 14.24 105.807 14.57C105.387 14.89 105.122 15.335 105.012 15.905C105.272 15.875 105.797 15.83 106.587 15.77C107.377 15.7 107.912 15.65 108.192 15.62C108.472 15.58 108.612 15.485 108.612 15.335ZM115.416 9.905L117.306 9.935H121.656V9.62C121.656 9.53 121.726 9.485 121.866 9.485C122.016 9.485 122.091 9.53 122.091 9.62C122.091 10.62 122.141 11.38 122.241 11.9C122.261 11.98 122.191 12.02 122.031 12.02C121.871 12.02 121.781 11.98 121.761 11.9C121.601 11.27 121.411 10.905 121.191 10.805C120.661 10.605 119.811 10.5 118.641 10.49C118.441 10.5 118.306 10.555 118.236 10.655C118.176 10.755 118.146 10.93 118.146 11.18V14.72C118.766 14.71 119.371 14.68 119.961 14.63C120.551 14.58 120.871 14.54 120.921 14.51L121.071 13.625C121.081 13.555 121.141 13.52 121.251 13.52C121.461 13.52 121.556 13.565 121.536 13.655C121.486 14.045 121.461 14.485 121.461 14.975C121.461 15.465 121.486 15.905 121.536 16.295C121.556 16.375 121.481 16.415 121.311 16.415C121.151 16.415 121.071 16.385 121.071 16.325L120.906 15.425C120.846 15.395 120.526 15.355 119.946 15.305C119.376 15.245 118.776 15.21 118.146 15.2V18.08C118.146 18.96 118.251 19.4 118.461 19.4H119.226C120.776 19.38 121.836 19.17 122.406 18.77L122.511 17.945C122.531 17.865 122.616 17.825 122.766 17.825C122.926 17.825 123.006 17.855 123.006 17.915L122.871 20.33C122.871 20.4 122.791 20.435 122.631 20.435C122.481 20.435 122.406 20.4 122.406 20.33V20H118.701L115.341 20.03C115.261 20.03 115.221 19.945 115.221 19.775C115.221 19.605 115.261 19.52 115.341 19.52H115.986C116.236 19.52 116.401 19.475 116.481 19.385C116.561 19.285 116.601 19.1 116.601 18.83V11.72C116.601 10.84 116.496 10.4 116.286 10.4H115.416C115.336 10.4 115.296 10.32 115.296 10.16C115.296 9.99 115.336 9.905 115.416 9.905ZM129.459 13.46L130.554 13.43C130.624 13.43 130.659 13.495 130.659 13.625C130.659 13.755 130.624 13.82 130.554 13.82H130.164C130.054 13.82 129.974 13.865 129.924 13.955C129.644 14.415 129.204 15.43 128.604 17C128.014 18.56 127.634 19.63 127.464 20.21C127.424 20.3 127.324 20.345 127.164 20.345C127.014 20.345 126.919 20.295 126.879 20.195C126.649 19.265 125.834 17.335 124.434 14.405C124.314 14.165 124.204 14.01 124.104 13.94C124.004 13.87 123.849 13.835 123.639 13.835C123.579 13.835 123.549 13.77 123.549 13.64C123.549 13.5 123.579 13.43 123.639 13.43L125.064 13.46C125.064 13.46 125.604 13.45 126.684 13.43C126.744 13.43 126.774 13.495 126.774 13.625C126.774 13.755 126.744 13.82 126.684 13.82H125.964C125.854 13.82 125.799 13.865 125.799 13.955C125.799 14.005 125.899 14.29 126.099 14.81C126.809 16.67 127.279 17.93 127.509 18.59C127.689 17.97 127.904 17.305 128.154 16.595C128.404 15.885 128.589 15.34 128.709 14.96C128.839 14.58 128.904 14.3 128.904 14.12C128.904 13.93 128.844 13.835 128.724 13.835H128.109C128.029 13.835 127.989 13.77 127.989 13.64C127.989 13.5 128.019 13.43 128.079 13.43L129.459 13.46ZM134.678 18.92C135.058 18.92 135.388 18.88 135.668 18.8C135.948 18.72 136.153 18.63 136.283 18.53L136.613 18.26C136.713 18.18 136.788 18.14 136.838 18.14C136.948 18.14 137.003 18.2 137.003 18.32C137.003 18.54 136.808 18.88 136.418 19.34C136.228 19.57 135.943 19.77 135.563 19.94C135.183 20.11 134.758 20.195 134.288 20.195C133.408 20.195 132.668 19.865 132.068 19.205C131.468 18.545 131.168 17.785 131.168 16.925C131.168 15.845 131.523 14.965 132.233 14.285C132.943 13.605 133.728 13.265 134.588 13.265C135.238 13.265 135.783 13.5 136.223 13.97C136.673 14.43 136.898 15.04 136.898 15.8C136.898 15.96 136.863 16.075 136.793 16.145C136.723 16.205 136.563 16.245 136.313 16.265C136.063 16.275 135.453 16.285 134.483 16.295C133.513 16.305 132.678 16.33 131.978 16.37C131.978 17.22 132.253 17.86 132.803 18.29C133.363 18.71 133.988 18.92 134.678 18.92ZM135.623 15.335C135.623 14.995 135.483 14.7 135.203 14.45C134.923 14.2 134.558 14.075 134.108 14.075C133.668 14.075 133.238 14.24 132.818 14.57C132.398 14.89 132.133 15.335 132.023 15.905C132.283 15.875 132.808 15.83 133.598 15.77C134.388 15.7 134.923 15.65 135.203 15.62C135.483 15.58 135.623 15.485 135.623 15.335ZM140.466 13.01L140.436 14.18H140.466C140.766 13.9 141.116 13.675 141.516 13.505C141.916 13.335 142.281 13.25 142.611 13.25C144.271 13.25 145.101 14.21 145.101 16.13V18.23C145.101 19.11 145.206 19.55 145.416 19.55H146.151C146.231 19.55 146.271 19.625 146.271 19.775C146.271 19.925 146.241 20 146.181 20C146.181 20 145.636 19.995 144.546 19.985L142.806 20.03C142.736 20.03 142.701 19.955 142.701 19.805C142.701 19.655 142.726 19.58 142.776 19.58H143.646C143.766 19.58 143.826 19.495 143.826 19.325V16.79C143.826 15.77 143.686 15.065 143.406 14.675C143.136 14.275 142.671 14.075 142.011 14.075C141.351 14.075 140.841 14.275 140.481 14.675V18.23C140.481 19.11 140.586 19.55 140.796 19.55H141.531C141.611 19.55 141.651 19.625 141.651 19.775C141.651 19.925 141.621 20 141.561 20L139.926 19.985L138.186 20.03C138.116 20.03 138.081 19.955 138.081 19.805C138.081 19.655 138.106 19.58 138.156 19.58H139.026C139.146 19.58 139.206 19.495 139.206 19.325V15.8C139.206 14.83 139.066 14.345 138.786 14.345H138.486C138.406 14.345 138.366 14.27 138.366 14.12C138.366 13.97 138.396 13.895 138.456 13.895C138.726 13.895 138.996 13.81 139.266 13.64C139.536 13.46 139.756 13.28 139.926 13.1C140.106 12.92 140.216 12.83 140.256 12.83C140.396 12.83 140.466 12.89 140.466 13.01ZM147.534 18.2V14.015H146.769C146.669 14.015 146.619 13.945 146.619 13.805C146.619 13.655 146.659 13.575 146.739 13.565C147.189 13.475 147.554 13.255 147.834 12.905C148.114 12.555 148.354 12.095 148.554 11.525C148.574 11.455 148.634 11.42 148.734 11.42C148.844 11.42 148.899 11.48 148.899 11.6C148.899 11.71 148.884 11.96 148.854 12.35C148.824 12.73 148.809 13.095 148.809 13.445H150.669C150.769 13.445 150.819 13.54 150.819 13.73C150.819 13.92 150.779 14.015 150.699 14.015H148.809V17.87C148.809 18.36 148.894 18.72 149.064 18.95C149.234 19.18 149.519 19.295 149.919 19.295C150.259 19.295 150.534 19.15 150.744 18.86C150.824 18.76 150.884 18.71 150.924 18.71C151.024 18.71 151.074 18.755 151.074 18.845C151.074 19.115 150.899 19.415 150.549 19.745C150.199 20.075 149.759 20.24 149.229 20.24C148.709 20.24 148.294 20.065 147.984 19.715C147.684 19.365 147.534 18.86 147.534 18.2Z" fill="black"/>
</g>
<defs>
<filter id="filter0_dd_239_3826" x="-22" y="-17" width="228" height="73" filterUnits="userSpaceOnUse" color-interpolation-filters="sRGB">
<feFlood flood-opacity="0" result="BackgroundImageFix"/>
<feColorMatrix in="SourceAlpha" type="matrix" values="0 0 0 0 0 0 0 0 0 0 0 0 0 0 0 0 0 0 127 0" result="hardAlpha"/>
<feOffset dx="6" dy="5"/>
<feGaussianBlur stdDeviation="10"/>
<feColorMatrix type="matrix" values="0 0 0 0 0.620833 0 0 0 0 0.620833 0 0 0 0 0.620833 0 0 0 0.4 0"/>
<feBlend mode="normal" in2="BackgroundImageFix" result="effect1_dropShadow_239_3826"/>
<feColorMatrix in="SourceAlpha" type="matrix" values="0 0 0 0 0 0 0 0 0 0 0 0 0 0 0 0 0 0 127 0" result="hardAlpha"/>
<feOffset dx="-6" dy="-2"/>
<feGaussianBlur stdDeviation="8"/>
<feColorMatrix type="matrix" values="0 0 0 0 1 0 0 0 0 1 0 0 0 0 1 0 0 0 0.7 0"/>
<feBlend mode="normal" in2="effect1_dropShadow_239_3826" result="effect2_dropShadow_239_3826"/>
<feBlend mode="normal" in="SourceGraphic" in2="effect2_dropShadow_239_3826" result="shape"/>
</filter>
<linearGradient id="paint0_linear_239_3826" x1="2.41622e-06" y1="2.26506" x2="9.67528" y2="57.7448" gradientUnits="userSpaceOnUse">
<stop stop-color="white"/>
<stop offset="1" stop-color="#DDDDDD"/>
</linearGradient>
<clipPath id="clip0_239_3826">
<rect width="180" height="32" rx="16" fill="white"/>
</clipPath>
</defs>
</svg>
