<svg width="276" height="122" viewBox="0 0 276 122" fill="none" xmlns="http://www.w3.org/2000/svg">
<g filter="url(#filter0_dddd_120_219)">
<rect x="30" y="30" width="216" height="64" rx="32" fill="#F5F5FA"/>
<path d="M87.5332 75H96.1113C101.525 75 104.883 72.2051 104.883 67.7402C104.883 64.3828 102.352 61.8691 98.9062 61.6055V61.4648C101.596 61.0605 103.67 58.7402 103.67 55.9629C103.67 52.0781 100.682 49.6348 95.918 49.6348H87.5332C85.8633 49.6348 84.8789 50.6543 84.8789 52.3945V72.2227C84.8789 73.9805 85.8633 75 87.5332 75ZM90.1875 60.1816V53.5898H94.5469C97.0254 53.5898 98.4492 54.75 98.4492 56.7891C98.4492 58.9336 96.832 60.1816 94.002 60.1816H90.1875ZM90.1875 71.0449V63.6797H94.6348C97.7637 63.6797 99.4688 64.9453 99.4688 67.3184C99.4688 69.7441 97.8164 71.0449 94.7578 71.0449H90.1875ZM114.164 75.3516C117.012 75.3516 118.875 73.9805 119.807 71.6074H119.912V72.7676C119.912 74.4727 120.914 75.3691 122.391 75.3691C123.867 75.3691 124.869 74.4727 124.869 72.7676V58.459C124.869 56.7012 123.814 55.7695 122.303 55.7695C120.809 55.7695 119.736 56.7012 119.736 58.459V66.9492C119.736 69.4453 118.312 71.0801 116.027 71.0801C113.76 71.0801 112.512 69.7441 112.512 67.2305V58.459C112.512 56.7012 111.457 55.7695 109.945 55.7695C108.451 55.7695 107.379 56.7012 107.379 58.459V68.3027C107.379 72.6973 110.086 75.3516 114.164 75.3516ZM129.58 70.1836C129.58 73.5059 131.32 75.2109 134.748 75.2109H134.924C137.086 75.2109 138.562 74.4375 138.562 72.9258C138.562 71.7305 137.877 71.2031 136.611 71.0625L136.277 71.0273C135.17 70.9395 134.713 70.377 134.713 69.041V60.0234H136.523C137.736 60.0234 138.492 59.2676 138.492 58.0898C138.492 56.9121 137.736 56.1562 136.523 56.1562H134.713V54.0645C134.713 52.4121 133.746 51.3926 132.146 51.3926C130.547 51.3926 129.58 52.4121 129.58 54.0645V56.1562H128.596C127.383 56.1562 126.609 56.8945 126.609 58.0898C126.609 59.2852 127.383 60.0234 128.596 60.0234H129.58V70.1836ZM142.377 70.1836C142.377 73.5059 144.117 75.2109 147.545 75.2109H147.721C149.883 75.2109 151.359 74.4375 151.359 72.9258C151.359 71.7305 150.674 71.2031 149.408 71.0625L149.074 71.0273C147.967 70.9395 147.51 70.377 147.51 69.041V60.0234H149.32C150.533 60.0234 151.289 59.2676 151.289 58.0898C151.289 56.9121 150.533 56.1562 149.32 56.1562H147.51V54.0645C147.51 52.4121 146.543 51.3926 144.943 51.3926C143.344 51.3926 142.377 52.4121 142.377 54.0645V56.1562H141.393C140.18 56.1562 139.406 56.8945 139.406 58.0898C139.406 59.2852 140.18 60.0234 141.393 60.0234H142.377V70.1836ZM162.17 75.4043C167.865 75.4043 171.504 71.7656 171.504 65.5605C171.504 59.4434 167.812 55.752 162.17 55.752C156.527 55.752 152.836 59.4609 152.836 65.5605C152.836 71.748 156.475 75.4043 162.17 75.4043ZM162.17 71.4844C159.639 71.4844 158.039 69.3574 158.039 65.5781C158.039 61.834 159.674 59.6719 162.17 59.6719C164.666 59.6719 166.283 61.834 166.283 65.5781C166.283 69.3574 164.684 71.4844 162.17 71.4844ZM176.725 75.3691C178.236 75.3691 179.291 74.4551 179.291 72.6973V64.1895C179.291 61.7461 180.75 60.0586 183.053 60.0586C185.355 60.0586 186.516 61.4648 186.516 63.9258V72.6973C186.516 74.4551 187.57 75.3691 189.082 75.3691C190.576 75.3691 191.648 74.4551 191.648 72.6973V62.8535C191.648 58.4414 189.293 55.8047 185.109 55.8047C182.209 55.8047 180.311 57.0879 179.309 59.4258H179.203V58.3711C179.203 56.7539 178.184 55.7695 176.637 55.7695C175.09 55.7695 174.158 56.7539 174.158 58.3535V72.6973C174.158 74.4551 175.23 75.3691 176.725 75.3691Z" fill="#7878AB"/>
</g>
<defs>
<filter id="filter0_dddd_120_219" x="0" y="0" width="276" height="124" filterUnits="userSpaceOnUse" color-interpolation-filters="sRGB">
<feFlood flood-opacity="0" result="BackgroundImageFix"/>
<feColorMatrix in="SourceAlpha" type="matrix" values="0 0 0 0 0 0 0 0 0 0 0 0 0 0 0 0 0 0 127 0" result="hardAlpha"/>
<feOffset dx="-10" dy="-10"/>
<feGaussianBlur stdDeviation="10"/>
<feColorMatrix type="matrix" values="0 0 0 0 1 0 0 0 0 1 0 0 0 0 1 0 0 0 1 0"/>
<feBlend mode="normal" in2="BackgroundImageFix" result="effect1_dropShadow_120_219"/>
<feColorMatrix in="SourceAlpha" type="matrix" values="0 0 0 0 0 0 0 0 0 0 0 0 0 0 0 0 0 0 127 0" result="hardAlpha"/>
<feOffset dx="10" dy="10"/>
<feGaussianBlur stdDeviation="10"/>
<feColorMatrix type="matrix" values="0 0 0 0 0.666667 0 0 0 0 0.666667 0 0 0 0 0.8 0 0 0 0.5 0"/>
<feBlend mode="normal" in2="effect1_dropShadow_120_219" result="effect2_dropShadow_120_219"/>
<feColorMatrix in="SourceAlpha" type="matrix" values="0 0 0 0 0 0 0 0 0 0 0 0 0 0 0 0 0 0 127 0" result="hardAlpha"/>
<feOffset dx="5" dy="5"/>
<feGaussianBlur stdDeviation="5"/>
<feColorMatrix type="matrix" values="0 0 0 0 0.666667 0 0 0 0 0.666667 0 0 0 0 0.8 0 0 0 0.25 0"/>
<feBlend mode="normal" in2="effect2_dropShadow_120_219" result="effect3_dropShadow_120_219"/>
<feColorMatrix in="SourceAlpha" type="matrix" values="0 0 0 0 0 0 0 0 0 0 0 0 0 0 0 0 0 0 127 0" result="hardAlpha"/>
<feOffset dx="-5" dy="-5"/>
<feGaussianBlur stdDeviation="5"/>
<feColorMatrix type="matrix" values="0 0 0 0 1 0 0 0 0 1 0 0 0 0 1 0 0 0 0.5 0"/>
<feBlend mode="normal" in2="effect3_dropShadow_120_219" result="effect4_dropShadow_120_219"/>
<feBlend mode="normal" in="SourceGraphic" in2="effect4_dropShadow_120_219" result="shape"/>
</filter>
</defs>
</svg>
