<svg width="160" height="17" viewBox="0 0 160 17" fill="none" xmlns="http://www.w3.org/2000/svg">
<path d="M6.31316 5.92C5.32116 5.92 4.52116 6.296 3.91316 7.048C3.30516 7.8 3.00116 8.816 3.00116 10.096C3.00116 11.456 3.37716 12.672 4.12916 13.744C4.89716 14.8 5.76116 15.328 6.72116 15.328C8.11316 15.328 9.23316 14.8 10.0812 13.744L10.6572 14.032C10.1932 14.8 9.58516 15.36 8.83316 15.712C8.09716 16.064 7.12116 16.24 5.90516 16.24C5.29716 16.24 4.71316 16.152 4.15316 15.976C3.59316 15.784 3.04116 15.48 2.49716 15.064C1.95316 14.632 1.52116 14 1.20116 13.168C0.881156 12.336 0.721156 11.344 0.721156 10.192C0.721156 8.8 1.20916 7.624 2.18516 6.664C3.17716 5.688 4.47316 5.2 6.07316 5.2C7.33716 5.2 8.31316 5.416 9.00116 5.848C9.68916 6.28 10.0332 6.912 10.0332 7.744C10.0332 8.112 9.93716 8.408 9.74516 8.632C9.55316 8.84 9.30516 8.944 9.00116 8.944C8.71316 8.944 8.45716 8.872 8.23316 8.728C8.02516 8.584 7.92116 8.376 7.92116 8.104C7.92116 7.768 8.00116 7.52 8.16116 7.36C8.33716 7.2 8.53716 7.12 8.76116 7.12C8.55316 6.32 7.73716 5.92 6.31316 5.92ZM11.7735 16V15.496C12.6375 15.496 13.1415 15.336 13.2855 15.016V2.584C12.2935 2.504 11.7895 2.464 11.7735 2.464V1.912C12.0775 1.912 12.6695 1.744 13.5495 1.408C14.4455 1.056 15.0775 0.879999 15.4455 0.879999V15.016C15.5895 15.336 16.0935 15.496 16.9575 15.496V16H11.7735ZM18.201 16V15.496C19.065 15.496 19.569 15.336 19.713 15.016V6.904C18.721 6.824 18.217 6.784 18.201 6.784V6.232C18.505 6.232 19.097 6.064 19.977 5.728C20.873 5.376 21.505 5.2 21.873 5.2V15.016C22.017 15.336 22.521 15.496 23.385 15.496V16H18.201ZM20.721 3.664C20.369 3.664 20.057 3.536 19.785 3.28C19.529 3.008 19.401 2.664 19.401 2.248C19.401 1.88 19.513 1.56 19.737 1.288C19.977 1.016 20.281 0.879999 20.649 0.879999C21.001 0.879999 21.313 1.016 21.585 1.288C21.857 1.56 21.993 1.904 21.993 2.32C21.993 2.688 21.873 3.008 21.633 3.28C21.393 3.536 21.089 3.664 20.721 3.664ZM30.2897 5.92C29.2977 5.92 28.4977 6.296 27.8897 7.048C27.2817 7.8 26.9777 8.816 26.9777 10.096C26.9777 11.456 27.3537 12.672 28.1057 13.744C28.8737 14.8 29.7377 15.328 30.6977 15.328C32.0897 15.328 33.2097 14.8 34.0577 13.744L34.6337 14.032C34.1697 14.8 33.5617 15.36 32.8097 15.712C32.0737 16.064 31.0977 16.24 29.8817 16.24C29.2737 16.24 28.6897 16.152 28.1297 15.976C27.5697 15.784 27.0177 15.48 26.4737 15.064C25.9297 14.632 25.4977 14 25.1777 13.168C24.8577 12.336 24.6977 11.344 24.6977 10.192C24.6977 8.8 25.1857 7.624 26.1617 6.664C27.1537 5.688 28.4497 5.2 30.0497 5.2C31.3137 5.2 32.2897 5.416 32.9777 5.848C33.6657 6.28 34.0097 6.912 34.0097 7.744C34.0097 8.112 33.9137 8.408 33.7217 8.632C33.5297 8.84 33.2817 8.944 32.9777 8.944C32.6897 8.944 32.4337 8.872 32.2097 8.728C32.0017 8.584 31.8977 8.376 31.8977 8.104C31.8977 7.768 31.9777 7.52 32.1377 7.36C32.3137 7.2 32.5137 7.12 32.7377 7.12C32.5297 6.32 31.7137 5.92 30.2897 5.92ZM35.7501 16V15.496C36.6141 15.496 37.1181 15.336 37.2621 15.016V2.584C36.2701 2.504 35.7661 2.464 35.7501 2.464V1.912C36.0541 1.912 36.6461 1.744 37.5261 1.408C38.4221 1.056 39.0541 0.879999 39.4221 0.879999V15.016C39.5661 15.336 40.0701 15.496 40.9341 15.496V16H35.7501ZM42.6861 16V15.496C43.0701 15.496 43.3741 15.472 43.5981 15.424L39.5901 9.904L43.8381 6.088C43.5981 5.992 43.2061 5.944 42.6621 5.944V5.44H46.4301V5.944C45.8381 5.944 45.4061 6.048 45.1341 6.256L41.7261 9.304L45.8541 15.04C46.0781 15.344 46.5821 15.496 47.3661 15.496V16H42.6861ZM57.3552 1.96V5.44H59.4192V6.16H57.3552V13.792C57.3552 14.288 57.4432 14.672 57.6192 14.944C57.7952 15.2 58.1232 15.328 58.6032 15.328C58.8912 15.328 59.1792 15.192 59.4672 14.92C59.7712 14.632 59.9792 14.24 60.0912 13.744L60.6672 14.032C60.3312 15.504 59.3712 16.24 57.7872 16.24C55.9632 16.24 55.0512 15.36 55.0512 13.6V6.16H53.3712V5.44C54.1232 5.44 54.8032 5.128 55.4112 4.504C56.0192 3.88 56.3232 3.032 56.3232 1.96H57.3552ZM61.5313 16V15.496C62.3953 15.496 62.8993 15.336 63.0433 15.016V2.584C62.0513 2.504 61.5473 2.464 61.5313 2.464V1.912C61.8353 1.912 62.4273 1.744 63.3073 1.408C64.2033 1.056 64.8353 0.879999 65.2033 0.879999V6.304C66.0673 5.568 67.0193 5.2 68.0593 5.2C69.5793 5.2 70.6593 5.448 71.2993 5.944C71.9553 6.44 72.2833 7.296 72.2833 8.512V15.016C72.4273 15.336 72.9313 15.496 73.7953 15.496V16H68.6113V15.496C69.4753 15.496 69.9793 15.336 70.1233 15.016V8.344C70.1233 6.792 69.3873 6.016 67.9153 6.016C66.9073 6.016 66.0033 6.368 65.2033 7.072V15.016C65.3473 15.336 65.8513 15.496 66.7153 15.496V16H61.5313ZM77.3449 10.216C77.3609 11.56 77.7449 12.752 78.4969 13.792C79.2649 14.816 80.1209 15.328 81.0649 15.328C82.4569 15.328 83.5769 14.8 84.4249 13.744L85.0009 14.032C84.5369 14.8 83.9289 15.36 83.1769 15.712C82.4409 16.064 81.4649 16.24 80.2489 16.24C79.6409 16.24 79.0569 16.152 78.4969 15.976C77.9369 15.784 77.3849 15.48 76.8409 15.064C76.2969 14.632 75.8649 14 75.5449 13.168C75.2249 12.336 75.0649 11.344 75.0649 10.192C75.0649 8.784 75.4969 7.6 76.3609 6.64C77.2409 5.68 78.4569 5.2 80.0089 5.2C81.7049 5.2 82.9689 5.68 83.8009 6.64C84.6329 7.584 85.0489 8.776 85.0489 10.216H77.3449ZM77.3689 9.472H82.6969C82.6009 8.32 82.3529 7.44 81.9529 6.832C81.5689 6.224 80.8889 5.92 79.9129 5.92C79.3529 5.92 78.8089 6.248 78.2809 6.904C77.7689 7.56 77.4649 8.416 77.3689 9.472ZM93.3625 2.584C92.3705 2.504 91.8665 2.464 91.8505 2.464V1.912C92.1545 1.912 92.7465 1.744 93.6265 1.408C94.5225 1.056 95.1545 0.879999 95.5225 0.879999V6.232C96.3065 5.48 97.4025 5.104 98.8105 5.104C99.3385 5.104 99.8585 5.2 100.37 5.392C100.898 5.568 101.418 5.856 101.93 6.256C102.458 6.64 102.882 7.216 103.202 7.984C103.538 8.752 103.706 9.648 103.706 10.672C103.706 12.464 103.202 13.84 102.194 14.8C101.202 15.76 99.8985 16.24 98.2825 16.24C97.1305 16.24 96.1785 15.936 95.4265 15.328C94.5465 15.936 93.8585 16.24 93.3625 16.24V2.584ZM95.5225 7.048V14.584C96.1625 15.144 97.0345 15.424 98.1385 15.424C99.0185 15.424 99.7865 15.008 100.442 14.176C101.098 13.328 101.426 12.16 101.426 10.672C101.426 9.264 101.162 8.12 100.634 7.24C100.106 6.36 99.4185 5.92 98.5705 5.92C97.2265 5.92 96.2105 6.296 95.5225 7.048ZM115.805 14.536C115.805 14.536 116.309 14.576 117.317 14.656V15.208C117.013 15.208 116.413 15.384 115.517 15.736C114.637 16.072 114.013 16.24 113.645 16.24V15.136C112.781 15.872 111.829 16.24 110.789 16.24C109.301 16.24 108.221 15.968 107.549 15.424C106.893 14.864 106.565 14 106.565 12.832V6.424C106.421 6.104 105.917 5.944 105.053 5.944V5.44H108.725V13C108.725 14.616 109.461 15.424 110.933 15.424C111.941 15.424 112.845 15.072 113.645 14.368V6.424C113.501 6.104 112.997 5.944 112.133 5.944V5.44H115.805V14.536ZM122.16 1.96V5.44H124.224V6.16H122.16V13.792C122.16 14.288 122.248 14.672 122.424 14.944C122.6 15.2 122.928 15.328 123.408 15.328C123.696 15.328 123.984 15.192 124.272 14.92C124.576 14.632 124.784 14.24 124.896 13.744L125.472 14.032C125.136 15.504 124.176 16.24 122.592 16.24C120.768 16.24 119.856 15.36 119.856 13.6V6.16H118.176V5.44C118.928 5.44 119.608 5.128 120.216 4.504C120.824 3.88 121.128 3.032 121.128 1.96H122.16ZM130.152 1.96V5.44H132.216V6.16H130.152V13.792C130.152 14.288 130.24 14.672 130.416 14.944C130.592 15.2 130.92 15.328 131.4 15.328C131.688 15.328 131.976 15.192 132.264 14.92C132.568 14.632 132.776 14.24 132.888 13.744L133.464 14.032C133.128 15.504 132.168 16.24 130.584 16.24C128.76 16.24 127.848 15.36 127.848 13.6V6.16H126.168V5.44C126.92 5.44 127.6 5.128 128.208 4.504C128.816 3.88 129.12 3.032 129.12 1.96H130.152ZM136.97 10.048C136.97 11.872 137.314 13.24 138.002 14.152C138.706 15.064 139.602 15.52 140.69 15.52C141.554 15.52 142.25 15.136 142.778 14.368C143.306 13.584 143.57 12.584 143.57 11.368C143.57 7.752 142.314 5.944 139.802 5.944C138.954 5.944 138.266 6.352 137.738 7.168C137.226 7.968 136.97 8.928 136.97 10.048ZM140.378 16.24C138.586 16.24 137.186 15.72 136.178 14.68C135.17 13.624 134.666 12.24 134.666 10.528C134.666 8.976 135.122 7.704 136.034 6.712C136.946 5.704 138.338 5.2 140.21 5.2C142.098 5.2 143.514 5.704 144.458 6.712C145.402 7.704 145.874 9.072 145.874 10.816C145.874 12.368 145.418 13.664 144.506 14.704C143.61 15.728 142.234 16.24 140.378 16.24ZM147.553 16V15.496C148.417 15.496 148.921 15.336 149.065 15.016V6.904C148.073 6.824 147.569 6.784 147.553 6.784V6.232C147.857 6.232 148.449 6.064 149.329 5.728C150.225 5.376 150.857 5.2 151.225 5.2V6.304C152.089 5.568 153.041 5.2 154.081 5.2C155.569 5.2 156.641 5.48 157.297 6.04C157.969 6.584 158.305 7.44 158.305 8.608V15.016C158.449 15.336 158.953 15.496 159.817 15.496V16H154.633V15.496C155.497 15.496 156.001 15.336 156.145 15.016V8.44C156.145 6.824 155.409 6.016 153.937 6.016C152.929 6.016 152.025 6.368 151.225 7.072V15.016C151.369 15.336 151.873 15.496 152.737 15.496V16H147.553Z" fill="black"/>
</svg>
