<svg width="25" height="25" viewBox="0 0 25 25" fill="none" xmlns="http://www.w3.org/2000/svg">
<path d="M22.3957 8.84167V17.5781C22.3957 19.0885 21.1717 20.3125 19.6613 20.3125H5.33838C4.61318 20.3125 3.91768 20.0244 3.40488 19.5116C2.89209 18.9988 2.604 18.3033 2.604 17.5781V8.84167L12.1863 14.1125C12.3816 14.2198 12.6186 14.2198 12.8134 14.1125L22.3957 8.84167ZM19.6613 4.6875C20.3751 4.68757 21.0606 4.96675 21.5713 5.4654C22.082 5.96406 22.3775 6.64266 22.3946 7.35625L12.4998 12.799L2.60505 7.35573L2.60609 7.30885C2.63526 6.60378 2.93588 5.93728 3.4451 5.44874C3.95432 4.96019 4.6327 4.68743 5.33838 4.6875H19.6613Z" fill="white"/>
</svg>
