<svg width="368" height="157" viewBox="0 0 368 157" fill="none" xmlns="http://www.w3.org/2000/svg">
<g clip-path="url(#clip0_483_1204)">
<path d="M118.352 55.2522V54.024C120.457 54.024 121.686 53.634 122.036 52.8542V23.4351C121.686 22.6552 120.457 22.2653 118.352 22.2653V21.0371H141.922V26.7103H140.694C140.694 24.6048 140.304 23.3766 139.524 23.0256H127.417V36.4777H135.606C136.385 36.1268 136.775 34.8986 136.775 32.793H138.004V42.151H136.775C136.775 40.0455 136.385 38.8172 135.606 38.4663H127.417V53.2636H140.752C141.727 52.8347 142.605 51.6065 143.384 49.5789H144.554L143.15 55.2522H118.352ZM155.222 29.5177V30.746C154.091 30.746 153.273 30.824 152.766 30.9799L159.726 48.1167L166.393 31.3893C165.847 30.9604 164.756 30.746 163.118 30.746V29.5177H172.71V30.746C170.565 30.746 169.357 31.1164 169.084 31.8572L159.726 55.2522H156.86L147.56 31.9157C147.209 31.1359 145.981 30.746 143.876 30.746V29.5177H155.222ZM179.707 41.1567C179.746 44.432 180.682 47.3369 182.514 49.8714C184.386 52.3668 186.472 53.6146 188.772 53.6146C192.165 53.6146 194.894 52.3278 196.961 49.7544L198.364 50.4562C197.234 52.3278 195.752 53.6925 193.919 54.5503C192.126 55.4082 189.747 55.8371 186.784 55.8371C185.302 55.8371 183.879 55.6226 182.514 55.1937C181.15 54.7258 179.804 53.985 178.479 52.9712C177.153 51.9184 176.1 50.3782 175.32 48.3507C174.54 46.3231 174.151 43.9056 174.151 41.0982C174.151 37.667 175.203 34.7816 177.309 32.4421C179.453 30.1026 182.417 28.9329 186.199 28.9329C190.332 28.9329 193.412 30.1026 195.44 32.4421C197.468 34.7426 198.481 37.6475 198.481 41.1567H179.707ZM179.765 39.3436H192.75C192.516 36.5362 191.911 34.3917 190.936 32.91C190.001 31.4283 188.343 30.6875 185.965 30.6875C184.6 30.6875 183.275 31.4868 181.988 33.0855C180.74 34.6841 179.999 36.7702 179.765 39.3436ZM202.527 55.2522V54.024C204.632 54.024 205.86 53.634 206.211 52.8542V33.0855C203.794 32.8905 202.566 32.793 202.527 32.793V31.4478C203.267 31.4478 204.71 31.0384 206.855 30.2196C209.038 29.3618 210.578 28.9329 211.475 28.9329V31.6233C213.581 29.8297 215.901 28.9329 218.435 28.9329C222.061 28.9329 224.674 29.6152 226.272 30.9799C227.91 32.3056 228.729 34.3917 228.729 37.2381V52.8542C229.08 53.634 230.308 54.024 232.414 54.024V55.2522H219.78V54.024C221.886 54.024 223.114 53.634 223.465 52.8542V36.8287C223.465 32.8905 221.671 30.9214 218.084 30.9214C215.628 30.9214 213.425 31.7793 211.475 33.4949V52.8542C211.826 53.634 213.054 54.024 215.16 54.024V55.2522H202.527ZM243.626 21.0371V29.5177H248.656V31.2724H243.626V49.8714C243.626 51.0801 243.841 52.0159 244.27 52.6788C244.699 53.3026 245.498 53.6146 246.668 53.6146C247.369 53.6146 248.071 53.2831 248.773 52.6203C249.514 51.9184 250.021 50.9631 250.294 49.7544L251.698 50.4562C250.879 54.0435 248.539 55.8371 244.679 55.8371C240.234 55.8371 238.011 53.6925 238.011 49.4035V31.2724H233.917V29.5177C235.75 29.5177 237.407 28.7574 238.889 27.2367C240.37 25.7161 241.111 23.6495 241.111 21.0371H243.626ZM24.909 122.252V121.024C27.0145 121.024 28.2428 120.634 28.5937 119.854V90.4351C28.2428 89.6552 27.0145 89.2653 24.909 89.2653V88.0371H33.4481L45.906 115.234L58.3638 88.0371H67.0199V89.2653C64.9144 89.2653 63.6861 89.6552 63.3352 90.4351V119.854C63.6861 120.634 64.9144 121.024 67.0199 121.024V122.252H54.2697V121.024C56.3752 121.024 57.6034 120.634 57.9544 119.854V93.5934L44.8532 122.252H43.9759L30.5823 93.2424V119.854C30.9332 120.634 32.1614 121.024 34.267 121.024V122.252H24.909ZM75.496 100.846C76.0419 100.846 76.5098 101.041 76.8997 101.431C77.3286 101.821 77.5431 102.425 77.5431 103.244C77.5431 103.907 77.2701 104.414 76.7243 104.764C76.2174 105.115 75.613 105.291 74.9111 105.291C74.1703 105.291 73.5659 105.037 73.098 104.531C72.6301 103.985 72.3962 103.263 72.3962 102.366C72.3962 100.339 73.2345 98.7598 74.9111 97.629C76.5878 96.4982 78.9663 95.9329 82.0466 95.9329C85.6728 95.9329 88.3243 96.8297 90.0009 98.6233C91.7165 100.417 92.5743 102.795 92.5743 105.759V117.339C92.5743 118.587 92.7693 119.503 93.1592 120.088C93.5881 120.673 94.095 120.965 94.6799 120.965C95.1868 120.965 95.6352 120.829 96.0251 120.556C96.454 120.283 96.6685 119.952 96.6685 119.562H97.7212C97.7212 120.654 97.3118 121.453 96.493 121.96C95.7132 122.467 94.329 122.72 92.3404 122.72C90.3908 122.72 89.0066 121.921 88.1878 120.322C85.8873 121.999 83.0214 122.837 79.5901 122.837C73.7414 122.837 70.817 120.459 70.817 115.702C70.817 114.688 71.1679 113.772 71.8698 112.953C72.6106 112.134 73.6634 111.452 75.0281 110.906C76.3928 110.36 77.6795 109.931 78.8883 109.619C80.097 109.268 81.5982 108.898 83.3918 108.508C85.2244 108.079 86.5306 107.747 87.3105 107.513C87.3105 104.238 86.8816 101.84 86.0237 100.319C85.1659 98.7987 83.6453 98.0384 81.4617 98.0384C77.9525 98.0384 75.9639 98.9742 75.496 100.846ZM87.6614 118.86C87.4274 118.002 87.3105 116.949 87.3105 115.702V108.8C86.8816 108.956 86.1407 109.171 85.0879 109.443C84.0742 109.716 83.2358 109.95 82.573 110.145C81.9491 110.34 81.1888 110.633 80.292 111.023C79.3952 111.413 78.6933 111.802 78.1864 112.192C77.6795 112.582 77.2311 113.109 76.8412 113.772C76.4513 114.395 76.2564 115.078 76.2564 115.819C76.2564 117.69 76.6073 118.996 77.3091 119.737C78.05 120.478 79.1417 120.848 80.5844 120.848C83.1579 120.848 85.5169 120.186 87.6614 118.86ZM99.0312 122.252V121.024C101.137 121.024 102.365 120.634 102.716 119.854V100.085C100.298 99.8905 99.0702 99.793 99.0312 99.793V98.4478C99.7721 98.4478 101.215 98.0384 103.359 97.2196C105.543 96.3618 107.083 95.9329 107.98 95.9329V98.6233C110.085 96.8297 112.405 95.9329 114.94 95.9329C118.566 95.9329 121.178 96.6152 122.777 97.9799C124.415 99.3056 125.234 101.392 125.234 104.238V119.854C125.585 120.634 126.813 121.024 128.918 121.024V122.252H116.285V121.024C118.391 121.024 119.619 120.634 119.97 119.854V103.829C119.97 99.8905 118.176 97.9214 114.589 97.9214C112.132 97.9214 109.929 98.7793 107.98 100.495V119.854C108.331 120.634 109.559 121.024 111.665 121.024V122.252H99.0312ZM136.439 100.846C136.985 100.846 137.453 101.041 137.843 101.431C138.272 101.821 138.486 102.425 138.486 103.244C138.486 103.907 138.214 104.414 137.668 104.764C137.161 105.115 136.556 105.291 135.855 105.291C135.114 105.291 134.509 105.037 134.041 104.531C133.574 103.985 133.34 103.263 133.34 102.366C133.34 100.339 134.178 98.7598 135.855 97.629C137.531 96.4982 139.91 95.9329 142.99 95.9329C146.616 95.9329 149.268 96.8297 150.944 98.6233C152.66 100.417 153.518 102.795 153.518 105.759V117.339C153.518 118.587 153.713 119.503 154.103 120.088C154.532 120.673 155.038 120.965 155.623 120.965C156.13 120.965 156.579 120.829 156.969 120.556C157.397 120.283 157.612 119.952 157.612 119.562H158.665C158.665 120.654 158.255 121.453 157.436 121.96C156.657 122.467 155.272 122.72 153.284 122.72C151.334 122.72 149.95 121.921 149.131 120.322C146.831 121.999 143.965 122.837 140.534 122.837C134.685 122.837 131.76 120.459 131.76 115.702C131.76 114.688 132.111 113.772 132.813 112.953C133.554 112.134 134.607 111.452 135.972 110.906C137.336 110.36 138.623 109.931 139.832 109.619C141.04 109.268 142.542 108.898 144.335 108.508C146.168 108.079 147.474 107.747 148.254 107.513C148.254 104.238 147.825 101.84 146.967 100.319C146.109 98.7987 144.589 98.0384 142.405 98.0384C138.896 98.0384 136.907 98.9742 136.439 100.846ZM148.605 118.86C148.371 118.002 148.254 116.949 148.254 115.702V108.8C147.825 108.956 147.084 109.171 146.031 109.443C145.018 109.716 144.179 109.95 143.516 110.145C142.893 110.34 142.132 110.633 141.235 111.023C140.339 111.413 139.637 111.802 139.13 112.192C138.623 112.582 138.175 113.109 137.785 113.772C137.395 114.395 137.2 115.078 137.2 115.819C137.2 117.69 137.551 118.996 138.253 119.737C138.993 120.478 140.085 120.848 141.528 120.848C144.101 120.848 146.46 120.186 148.605 118.86ZM184.598 95.9329V120.556C184.598 124.572 183.623 127.809 181.673 130.265C179.763 132.721 176.956 133.95 173.251 133.95C169.937 133.95 167.266 133.384 165.239 132.254C163.25 131.123 162.256 129.934 162.256 128.686C162.256 127.789 162.49 127.068 162.958 126.522C163.425 126.015 164.03 125.761 164.771 125.761C165.472 125.761 166.077 125.937 166.584 126.288C167.13 126.639 167.403 127.146 167.403 127.809C167.403 129.056 166.915 129.875 165.94 130.265C166.993 131.318 169.235 131.844 172.666 131.844C176.683 131.844 178.886 128.257 179.276 121.082C177.482 122.252 175.181 122.837 172.374 122.837C171.087 122.837 169.801 122.642 168.514 122.252C167.266 121.823 165.999 121.141 164.712 120.205C163.464 119.269 162.431 117.885 161.612 116.053C160.832 114.181 160.443 111.997 160.443 109.502C160.443 105.135 161.651 101.782 164.069 99.4421C166.525 97.1026 169.723 95.9329 173.661 95.9329C176.117 95.9329 178.262 96.5567 180.094 97.8045C182.083 96.5567 183.584 95.9329 184.598 95.9329ZM179.334 119.152V118.451V99.1497C177.93 98.3309 176.156 97.9214 174.012 97.9214C171.867 97.9214 169.996 98.9547 168.397 101.021C166.798 103.049 165.999 105.876 165.999 109.502C165.999 112.933 166.642 115.682 167.929 117.749C169.216 119.815 170.892 120.848 172.959 120.848C175.532 120.848 177.657 120.283 179.334 119.152ZM196.385 108.157C196.424 111.432 197.36 114.337 199.192 116.871C201.064 119.367 203.15 120.615 205.45 120.615C208.843 120.615 211.572 119.328 213.639 116.754L215.042 117.456C213.912 119.328 212.43 120.693 210.597 121.55C208.804 122.408 206.425 122.837 203.462 122.837C201.98 122.837 200.557 122.623 199.192 122.194C197.828 121.726 196.482 120.985 195.157 119.971C193.831 118.918 192.778 117.378 191.998 115.351C191.219 113.323 190.829 110.906 190.829 108.098C190.829 104.667 191.881 101.782 193.987 99.4421C196.131 97.1026 199.095 95.9329 202.877 95.9329C207.01 95.9329 210.09 97.1026 212.118 99.4421C214.146 101.743 215.159 104.647 215.159 108.157H196.385ZM196.443 106.344H209.428C209.194 103.536 208.589 101.392 207.614 99.91C206.679 98.4283 205.022 97.6875 202.643 97.6875C201.278 97.6875 199.953 98.4868 198.666 100.085C197.418 101.684 196.677 103.77 196.443 106.344ZM219.205 122.252V121.024C221.31 121.024 222.538 120.634 222.889 119.854V100.085C220.472 99.8905 219.244 99.793 219.205 99.793V98.4478C219.945 98.4478 221.388 98.0384 223.533 97.2196C225.716 96.3618 227.256 95.9329 228.153 95.9329V98.5648C230.22 96.8102 232.384 95.9329 234.645 95.9329C239.324 95.9329 242.327 97.0636 243.652 99.3251C245.836 97.0636 248.273 95.9329 250.963 95.9329C257.514 95.9329 260.789 98.1554 260.789 102.6V119.854C261.14 120.634 262.368 121.024 264.474 121.024V122.252H251.841V121.024C253.946 121.024 255.174 120.634 255.525 119.854V104.764C255.525 102.23 255.155 100.456 254.414 99.4421C253.673 98.4283 252.406 97.9214 250.612 97.9214C248.312 97.9214 246.187 98.8572 244.237 100.729C244.393 101.236 244.471 101.86 244.471 102.6V119.854C244.822 120.634 246.05 121.024 248.156 121.024V122.252H235.523V121.024C237.628 121.024 238.856 120.634 239.207 119.854V104.764C239.207 102.23 238.837 100.456 238.096 99.4421C237.355 98.4283 236.088 97.9214 234.294 97.9214C232.072 97.9214 230.025 98.7793 228.153 100.495V119.854C228.504 120.634 229.732 121.024 231.838 121.024V122.252H219.205ZM273.15 108.157C273.189 111.432 274.124 114.337 275.957 116.871C277.829 119.367 279.915 120.615 282.215 120.615C285.607 120.615 288.337 119.328 290.403 116.754L291.807 117.456C290.676 119.328 289.195 120.693 287.362 121.55C285.568 122.408 283.19 122.837 280.227 122.837C278.745 122.837 277.322 122.623 275.957 122.194C274.592 121.726 273.247 120.985 271.921 119.971C270.596 118.918 269.543 117.378 268.763 115.351C267.983 113.323 267.593 110.906 267.593 108.098C267.593 104.667 268.646 101.782 270.752 99.4421C272.896 97.1026 275.86 95.9329 279.642 95.9329C283.775 95.9329 286.855 97.1026 288.883 99.4421C290.91 101.743 291.924 104.647 291.924 108.157H273.15ZM273.208 106.344H286.192C285.958 103.536 285.354 101.392 284.379 99.91C283.443 98.4283 281.786 97.6875 279.408 97.6875C278.043 97.6875 276.717 98.4868 275.431 100.085C274.183 101.684 273.442 103.77 273.208 106.344ZM295.969 122.252V121.024C298.075 121.024 299.303 120.634 299.654 119.854V100.085C297.236 99.8905 296.008 99.793 295.969 99.793V98.4478C296.71 98.4478 298.153 98.0384 300.297 97.2196C302.481 96.3618 304.021 95.9329 304.918 95.9329V98.6233C307.023 96.8297 309.343 95.9329 311.878 95.9329C315.504 95.9329 318.116 96.6152 319.715 97.9799C321.353 99.3056 322.172 101.392 322.172 104.238V119.854C322.523 120.634 323.751 121.024 325.856 121.024V122.252H313.223V121.024C315.329 121.024 316.557 120.634 316.908 119.854V103.829C316.908 99.8905 315.114 97.9214 311.527 97.9214C309.07 97.9214 306.867 98.7793 304.918 100.495V119.854C305.269 120.634 306.497 121.024 308.603 121.024V122.252H295.969ZM337.069 88.0371V96.5177H342.099V98.2724H337.069V116.871C337.069 118.08 337.283 119.016 337.712 119.679C338.141 120.303 338.941 120.615 340.11 120.615C340.812 120.615 341.514 120.283 342.216 119.62C342.957 118.918 343.464 117.963 343.737 116.754L345.14 117.456C344.321 121.043 341.982 122.837 338.122 122.837C333.677 122.837 331.454 120.693 331.454 116.403V98.2724H327.36V96.5177C329.193 96.5177 330.85 95.7574 332.332 94.2367C333.813 92.7161 334.554 90.6495 334.554 88.0371H337.069Z" fill="black"/>
</g>
<path d="M39 0.5C38.1716 0.5 37.5 1.17157 37.5 2C37.5 2.82843 38.1716 3.5 39 3.5V0.5ZM39 3.5H328.007V0.5H39V3.5Z" fill="black"/>
<path d="M38 153.5C37.1716 153.5 36.5 154.172 36.5 155C36.5 155.828 37.1716 156.5 38 156.5V153.5ZM38 156.5H327.007V153.5H38V156.5Z" fill="black"/>
<defs>
<clipPath id="clip0_483_1204">
<path d="M0 72C0 38.8629 26.8629 12 60 12H308C341.137 12 368 38.8629 368 72V143H0V72Z" fill="white"/>
</clipPath>
</defs>
</svg>
