<svg width="163" height="45" viewBox="0 0 163 45" fill="none" xmlns="http://www.w3.org/2000/svg">
<path d="M9.14789 44V42.44L12.7479 42.2C13.5479 42.16 14.1079 41.9 14.4279 41.42C14.7879 40.94 14.9679 40.14 14.9679 39.02V2.48H12.2079C10.8879 2.48 9.72789 2.68 8.72789 3.08C7.76789 3.44 6.88789 4.06 6.08789 4.94C5.32789 5.82 4.60789 6.98 3.92789 8.42C3.28789 9.82 2.62789 11.56 1.94789 13.64L0.0878906 13.16L1.64789 0.619997H38.1879L39.6879 13.16L37.7679 13.64C37.1279 11.56 36.4679 9.8 35.7879 8.36C35.1479 6.92 34.4279 5.78 33.6279 4.94C32.8679 4.06 32.0079 3.44 31.0479 3.08C30.0879 2.68 28.9479 2.48 27.6279 2.48H24.9279V39.26C24.9279 40.34 25.0879 41.08 25.4079 41.48C25.7679 41.88 26.3679 42.12 27.2079 42.2L30.6879 42.44V44H9.14789ZM54.6612 44.84C51.5012 44.84 48.7812 44.22 46.5012 42.98C44.2212 41.74 42.4612 39.96 41.2212 37.64C40.0212 35.28 39.4212 32.44 39.4212 29.12C39.4212 25.48 40.1412 22.4 41.5812 19.88C43.0212 17.36 44.9612 15.44 47.4012 14.12C49.8812 12.8 52.6812 12.14 55.8012 12.14C58.4012 12.14 60.6612 12.6 62.5812 13.52C64.5012 14.44 65.9812 15.76 67.0212 17.48C68.0612 19.2 68.5812 21.24 68.5812 23.6C68.5812 24.2 68.5612 24.82 68.5212 25.46C68.4812 26.1 68.4212 26.74 68.3412 27.38H49.3212C49.3212 29.86 49.6412 31.94 50.2812 33.62C50.9612 35.3 51.9612 36.56 53.2812 37.4C54.6012 38.24 56.2012 38.66 58.0812 38.66C59.8012 38.66 61.4212 38.42 62.9412 37.94C64.4612 37.42 66.0612 36.48 67.7412 35.12L68.8212 36.14C67.3812 38.9 65.4612 41.04 63.0612 42.56C60.7012 44.08 57.9012 44.84 54.6612 44.84ZM49.3212 25.58H59.3412C59.4212 25.02 59.4612 24.46 59.4612 23.9C59.5012 23.3 59.5212 22.7 59.5212 22.1C59.5212 19.18 59.1812 17.1 58.5012 15.86C57.8212 14.62 56.7612 14 55.3212 14C54.1612 14 53.1612 14.36 52.3212 15.08C51.4812 15.76 50.8012 16.96 50.2812 18.68C49.7612 20.36 49.4412 22.66 49.3212 25.58ZM81.7596 44.84C78.9996 44.84 76.8396 44.14 75.2796 42.74C73.7596 41.3 72.9996 39.28 72.9996 36.68C72.9996 34.52 73.5596 32.8 74.6796 31.52C75.7996 30.2 77.5996 29.22 80.0796 28.58C82.5996 27.9 85.9796 27.44 90.2196 27.2V20.3C90.2196 18.78 90.0396 17.56 89.6796 16.64C89.3596 15.68 88.7996 14.98 87.9996 14.54C87.2396 14.1 86.2196 13.88 84.9396 13.88C83.8596 13.88 82.7196 14.08 81.5196 14.48C80.3196 14.84 79.4196 15.3 78.8196 15.86C79.6996 16.9 80.3596 17.76 80.7996 18.44C81.2396 19.12 81.5196 19.68 81.6396 20.12C81.7996 20.56 81.8796 20.94 81.8796 21.26C81.8796 22.14 81.5196 22.9 80.7996 23.54C80.0796 24.14 79.0396 24.44 77.6796 24.44C76.2396 24.44 75.1596 24.08 74.4396 23.36C73.7596 22.64 73.4196 21.72 73.4196 20.6C73.4196 19.24 73.9596 17.92 75.0396 16.64C76.1196 15.32 77.6396 14.24 79.5996 13.4C81.5996 12.56 83.9396 12.14 86.6196 12.14C89.4196 12.14 91.7996 12.54 93.7596 13.34C95.7196 14.1 97.1996 15.34 98.1996 17.06C99.2396 18.78 99.7596 21.06 99.7596 23.9V38.3C99.7596 39.3 99.9396 40.04 100.3 40.52C100.7 40.96 101.26 41.18 101.98 41.18C102.42 41.18 102.84 41.14 103.24 41.06C103.64 40.94 104.08 40.78 104.56 40.58L104.92 41.72C103.92 42.84 102.78 43.64 101.5 44.12C100.22 44.6 98.9596 44.84 97.7196 44.84C95.6396 44.84 94.0396 44.36 92.9196 43.4C91.8396 42.4 91.1396 41.02 90.8196 39.26C90.2596 40.5 89.5596 41.54 88.7196 42.38C87.9196 43.22 86.9396 43.84 85.7796 44.24C84.6596 44.64 83.3196 44.84 81.7596 44.84ZM86.0196 41.12C86.8996 41.12 87.6396 40.9 88.2396 40.46C88.8796 40.02 89.3596 39.42 89.6796 38.66C90.0396 37.9 90.2196 37.02 90.2196 36.02V28.82C88.3396 28.86 86.8196 29.1 85.6596 29.54C84.4996 29.98 83.6596 30.7 83.1396 31.7C82.6596 32.66 82.4196 33.98 82.4196 35.66C82.4196 37.5 82.7196 38.88 83.3196 39.8C83.9196 40.68 84.8196 41.12 86.0196 41.12ZM106.392 44V42.5L108.732 42.2C109.372 42.12 109.772 41.9 109.932 41.54C110.132 41.18 110.232 40.48 110.232 39.44V18.56C110.232 17.28 110.112 16.4 109.872 15.92C109.632 15.4 109.052 15.1 108.132 15.02L105.852 14.78L105.972 13.28L118.752 12.62L119.232 13.04L119.292 18.98H119.352C119.952 17.5 120.732 16.26 121.692 15.26C122.692 14.26 123.832 13.5 125.112 12.98C126.392 12.42 127.752 12.14 129.192 12.14C131.672 12.14 133.712 12.72 135.312 13.88C136.912 15 137.992 16.7 138.552 18.98C139.432 16.78 140.732 15.1 142.452 13.94C144.172 12.74 146.172 12.14 148.452 12.14C150.572 12.14 152.352 12.56 153.792 13.4C155.272 14.24 156.392 15.46 157.152 17.06C157.912 18.66 158.292 20.64 158.292 23V39.74C158.292 40.66 158.412 41.3 158.652 41.66C158.892 41.98 159.372 42.18 160.092 42.26L162.252 42.5V44H145.692V42.56L147.252 42.32C147.892 42.2 148.292 41.98 148.452 41.66C148.652 41.3 148.752 40.66 148.752 39.74V22.88C148.752 21.04 148.612 19.62 148.332 18.62C148.092 17.58 147.672 16.86 147.072 16.46C146.512 16.06 145.752 15.86 144.792 15.86C143.712 15.86 142.732 16.16 141.852 16.76C141.012 17.36 140.332 18.22 139.812 19.34C139.292 20.46 139.032 21.78 139.032 23.3V39.62C139.032 40.46 139.092 41.08 139.212 41.48C139.332 41.88 139.712 42.12 140.352 42.2L142.212 42.56V44H126.432V42.56L127.992 42.32C128.632 42.2 129.032 41.98 129.192 41.66C129.392 41.3 129.492 40.66 129.492 39.74V22.88C129.492 21 129.352 19.56 129.072 18.56C128.832 17.52 128.432 16.82 127.872 16.46C127.312 16.06 126.532 15.86 125.532 15.86C124.452 15.86 123.472 16.18 122.592 16.82C121.712 17.46 121.012 18.34 120.492 19.46C119.972 20.54 119.712 21.82 119.712 23.3V39.62C119.712 40.54 119.792 41.18 119.952 41.54C120.152 41.9 120.532 42.12 121.092 42.2L122.892 42.56V44H106.392Z" fill="#3A3131"/>
</svg>
