<svg width="368" height="156" viewBox="0 0 368 156" fill="none" xmlns="http://www.w3.org/2000/svg">
<g clip-path="url(#clip0_483_1203)">
<path d="M75.2804 61V59.7718C77.3859 59.7718 78.6142 59.3818 78.9651 58.602V29.1829C78.6142 28.403 77.3859 28.0131 75.2804 28.0131V26.7849H83.8196L96.2774 53.9815L108.735 26.7849H117.391V28.0131C115.286 28.0131 114.058 28.403 113.707 29.1829V58.602C114.058 59.3818 115.286 59.7718 117.391 59.7718V61H104.641V59.7718C106.747 59.7718 107.975 59.3818 108.326 58.602V32.3412L95.2246 61H94.3473L80.9537 31.9903V58.602C81.3046 59.3818 82.5328 59.7718 84.6384 59.7718V61H75.2804ZM126.697 46.9045C126.736 50.1798 127.672 53.0847 129.505 55.6192C131.376 58.1146 133.462 59.3624 135.763 59.3624C139.155 59.3624 141.884 58.0756 143.951 55.5022L145.355 56.204C144.224 58.0756 142.742 59.4403 140.91 60.2982C139.116 61.156 136.738 61.5849 133.774 61.5849C132.292 61.5849 130.869 61.3704 129.505 60.9415C128.14 60.4736 126.795 59.7328 125.469 58.719C124.143 57.6662 123.09 56.1261 122.311 54.0985C121.531 52.0709 121.141 49.6534 121.141 46.846C121.141 43.4148 122.194 40.5294 124.299 38.1899C126.444 35.8504 129.407 34.6807 133.189 34.6807C137.322 34.6807 140.403 35.8504 142.43 38.1899C144.458 40.4904 145.472 43.3953 145.472 46.9045H126.697ZM126.756 45.0914H139.74C139.506 42.284 138.902 40.1395 137.927 38.6578C136.991 37.1761 135.334 36.4353 132.955 36.4353C131.591 36.4353 130.265 37.2346 128.978 38.8333C127.73 40.4319 126.99 42.518 126.756 45.0914ZM149.517 61V59.7718C151.622 59.7718 152.851 59.3818 153.202 58.602V38.8333C150.784 38.6383 149.556 38.5408 149.517 38.5408V37.1956C150.258 37.1956 151.7 36.7862 153.845 35.9674C156.028 35.1096 157.569 34.6807 158.465 34.6807V37.3126C160.532 35.558 162.696 34.6807 164.958 34.6807C169.637 34.6807 172.639 35.8114 173.965 38.0729C176.148 35.8114 178.585 34.6807 181.276 34.6807C187.826 34.6807 191.101 36.9032 191.101 41.3482V58.602C191.452 59.3818 192.681 59.7718 194.786 59.7718V61H182.153V59.7718C184.258 59.7718 185.487 59.3818 185.838 58.602V43.5123C185.838 40.9778 185.467 39.2037 184.726 38.1899C183.985 37.1761 182.718 36.6692 180.925 36.6692C178.624 36.6692 176.499 37.605 174.549 39.4766C174.705 39.9835 174.783 40.6074 174.783 41.3482V58.602C175.134 59.3818 176.363 59.7718 178.468 59.7718V61H165.835V59.7718C167.94 59.7718 169.169 59.3818 169.52 58.602V43.5123C169.52 40.9778 169.149 39.2037 168.408 38.1899C167.667 37.1761 166.4 36.6692 164.607 36.6692C162.384 36.6692 160.337 37.5271 158.465 39.2427V58.602C158.816 59.3818 160.045 59.7718 162.15 59.7718V61H149.517ZM199.83 28.3055C197.413 28.1106 196.185 28.0131 196.146 28.0131V26.6679C196.886 26.6679 198.329 26.2585 200.474 25.4397C202.657 24.5818 204.197 24.1529 205.094 24.1529V37.1956C207.005 35.363 209.676 34.4467 213.107 34.4467C214.394 34.4467 215.661 34.6807 216.909 35.1486C218.195 35.5775 219.462 36.2793 220.71 37.2541C221.997 38.1899 223.03 39.5936 223.81 41.4652C224.629 43.3368 225.038 45.5203 225.038 48.0158C225.038 52.3829 223.81 55.7361 221.354 58.0756C218.936 60.4151 215.758 61.5849 211.82 61.5849C209.013 61.5849 206.693 60.844 204.86 59.3624C202.716 60.844 201.039 61.5849 199.83 61.5849V28.3055ZM205.094 39.1842V57.5492C206.654 58.9139 208.779 59.5963 211.469 59.5963C213.614 59.5963 215.485 58.5825 217.084 56.555C218.683 54.4884 219.482 51.642 219.482 48.0158C219.482 44.5845 218.839 41.7966 217.552 39.6521C216.265 37.5076 214.589 36.4353 212.522 36.4353C209.247 36.4353 206.771 37.3516 205.094 39.1842ZM235.162 46.9045C235.201 50.1798 236.136 53.0847 237.969 55.6192C239.841 58.1146 241.927 59.3624 244.227 59.3624C247.619 59.3624 250.349 58.0756 252.415 55.5022L253.819 56.204C252.688 58.0756 251.207 59.4403 249.374 60.2982C247.58 61.156 245.202 61.5849 242.239 61.5849C240.757 61.5849 239.334 61.3704 237.969 60.9415C236.604 60.4736 235.259 59.7328 233.933 58.719C232.608 57.6662 231.555 56.1261 230.775 54.0985C229.995 52.0709 229.605 49.6534 229.605 46.846C229.605 43.4148 230.658 40.5294 232.764 38.1899C234.908 35.8504 237.872 34.6807 241.654 34.6807C245.787 34.6807 248.867 35.8504 250.895 38.1899C252.922 40.4904 253.936 43.3953 253.936 46.9045H235.162ZM235.22 45.0914H248.204C247.97 42.284 247.366 40.1395 246.391 38.6578C245.455 37.1761 243.798 36.4353 241.42 36.4353C240.055 36.4353 238.729 37.2346 237.443 38.8333C236.195 40.4319 235.454 42.518 235.22 45.0914ZM257.981 61V59.7718C260.087 59.7718 261.315 59.3818 261.666 58.602V38.8333C259.249 38.6383 258.02 38.5408 257.981 38.5408V37.1956C258.722 37.1956 260.165 36.7862 262.309 35.9674C264.493 35.1096 266.033 34.6807 266.93 34.6807V37.2541C268.879 35.5385 270.81 34.6807 272.72 34.6807C274.475 34.6807 275.937 35.0121 277.107 35.675C278.315 36.3378 278.92 37.0787 278.92 37.8975C278.92 39.3012 278.14 40.003 276.58 40.003C275.761 40.003 275.021 39.4571 274.358 38.3654C273.695 37.2346 272.935 36.6692 272.077 36.6692C270.556 36.6692 268.84 37.5076 266.93 39.1842V58.602C267.281 59.3818 268.509 59.7718 270.615 59.7718V61H257.981ZM16.7073 128V126.772C18.8129 126.772 20.0411 126.382 20.392 125.602V96.1829C20.0411 95.403 18.8129 95.0131 16.7073 95.0131V93.7849H25.2465L37.7043 120.982L50.1621 93.7849H58.8183V95.0131C56.7127 95.0131 55.4845 95.403 55.1335 96.1829V125.602C55.4845 126.382 56.7127 126.772 58.8183 126.772V128H46.068V126.772C48.1735 126.772 49.4018 126.382 49.7527 125.602V99.3412L36.6515 128H35.7742L22.3806 98.9903V125.602C22.7315 126.382 23.9598 126.772 26.0653 126.772V128H16.7073ZM67.2944 106.594C67.8402 106.594 68.3081 106.789 68.6981 107.178C69.127 107.568 69.3414 108.173 69.3414 108.992C69.3414 109.654 69.0685 110.161 68.5226 110.512C68.0157 110.863 67.4113 111.039 66.7095 111.039C65.9686 111.039 65.3643 110.785 64.8964 110.278C64.4285 109.732 64.1945 109.011 64.1945 108.114C64.1945 106.087 65.0328 104.508 66.7095 103.377C68.3861 102.246 70.7646 101.681 73.8449 101.681C77.4712 101.681 80.1226 102.577 81.7992 104.371C83.5149 106.165 84.3727 108.543 84.3727 111.507V123.087C84.3727 124.335 84.5676 125.251 84.9576 125.836C85.3865 126.421 85.8933 126.713 86.4782 126.713C86.9851 126.713 87.4335 126.577 87.8234 126.304C88.2523 126.031 88.4668 125.699 88.4668 125.31H89.5196C89.5196 126.401 89.1102 127.201 88.2913 127.708C87.5115 128.214 86.1273 128.468 84.1387 128.468C82.1891 128.468 80.8049 127.669 79.9861 126.07C77.6856 127.747 74.8197 128.585 71.3885 128.585C65.5397 128.585 62.6154 126.206 62.6154 121.449C62.6154 120.436 62.9663 119.519 63.6681 118.701C64.409 117.882 65.4618 117.199 66.8265 116.653C68.1912 116.108 69.4779 115.679 70.6866 115.367C71.8954 115.016 73.3965 114.645 75.1902 114.255C77.0228 113.827 78.329 113.495 79.1088 113.261C79.1088 109.986 78.6799 107.588 77.8221 106.067C76.9643 104.547 75.4436 103.786 73.2601 103.786C69.7508 103.786 67.7623 104.722 67.2944 106.594ZM79.4597 124.608C79.2258 123.75 79.1088 122.697 79.1088 121.449V114.548C78.6799 114.704 77.9391 114.918 76.8863 115.191C75.8725 115.464 75.0342 115.698 74.3713 115.893C73.7475 116.088 72.9871 116.381 72.0903 116.77C71.1935 117.16 70.4917 117.55 69.9848 117.94C69.4779 118.33 69.0295 118.856 68.6396 119.519C68.2496 120.143 68.0547 120.826 68.0547 121.566C68.0547 123.438 68.4056 124.744 69.1075 125.485C69.8483 126.226 70.9401 126.596 72.3828 126.596C74.9562 126.596 77.3152 125.933 79.4597 124.608ZM90.8296 128V126.772C92.9351 126.772 94.1634 126.382 94.5143 125.602V105.833C92.0968 105.638 90.8686 105.541 90.8296 105.541V104.196C91.5704 104.196 93.0131 103.786 95.1577 102.967C97.3412 102.11 98.8814 101.681 99.7782 101.681V104.371C101.884 102.577 104.204 101.681 106.738 101.681C110.364 101.681 112.977 102.363 114.575 103.728C116.213 105.053 117.032 107.139 117.032 109.986V125.602C117.383 126.382 118.611 126.772 120.717 126.772V128H108.083V126.772C110.189 126.772 111.417 126.382 111.768 125.602V109.576C111.768 105.638 109.974 103.669 106.387 103.669C103.931 103.669 101.728 104.527 99.7782 106.243V125.602C100.129 126.382 101.357 126.772 103.463 126.772V128H90.8296ZM128.238 106.594C128.784 106.594 129.252 106.789 129.641 107.178C130.07 107.568 130.285 108.173 130.285 108.992C130.285 109.654 130.012 110.161 129.466 110.512C128.959 110.863 128.355 111.039 127.653 111.039C126.912 111.039 126.308 110.785 125.84 110.278C125.372 109.732 125.138 109.011 125.138 108.114C125.138 106.087 125.976 104.508 127.653 103.377C129.33 102.246 131.708 101.681 134.788 101.681C138.415 101.681 141.066 102.577 142.743 104.371C144.458 106.165 145.316 108.543 145.316 111.507V123.087C145.316 124.335 145.511 125.251 145.901 125.836C146.33 126.421 146.837 126.713 147.422 126.713C147.929 126.713 148.377 126.577 148.767 126.304C149.196 126.031 149.41 125.699 149.41 125.31H150.463C150.463 126.401 150.054 127.201 149.235 127.708C148.455 128.214 147.071 128.468 145.082 128.468C143.133 128.468 141.748 127.669 140.93 126.07C138.629 127.747 135.763 128.585 132.332 128.585C126.483 128.585 123.559 126.206 123.559 121.449C123.559 120.436 123.91 119.519 124.612 118.701C125.352 117.882 126.405 117.199 127.77 116.653C129.135 116.108 130.421 115.679 131.63 115.367C132.839 115.016 134.34 114.645 136.134 114.255C137.966 113.827 139.272 113.495 140.052 113.261C140.052 109.986 139.623 107.588 138.766 106.067C137.908 104.547 136.387 103.786 134.203 103.786C130.694 103.786 128.706 104.722 128.238 106.594ZM140.403 124.608C140.169 123.75 140.052 122.697 140.052 121.449V114.548C139.623 114.704 138.882 114.918 137.83 115.191C136.816 115.464 135.978 115.698 135.315 115.893C134.691 116.088 133.931 116.381 133.034 116.77C132.137 117.16 131.435 117.55 130.928 117.94C130.421 118.33 129.973 118.856 129.583 119.519C129.193 120.143 128.998 120.826 128.998 121.566C128.998 123.438 129.349 124.744 130.051 125.485C130.792 126.226 131.883 126.596 133.326 126.596C135.9 126.596 138.259 125.933 140.403 124.608ZM176.396 101.681V126.304C176.396 130.32 175.421 133.556 173.472 136.013C171.561 138.469 168.754 139.697 165.05 139.697C161.735 139.697 159.064 139.132 157.037 138.001C155.048 136.871 154.054 135.681 154.054 134.434C154.054 133.537 154.288 132.815 154.756 132.27C155.224 131.763 155.828 131.509 156.569 131.509C157.271 131.509 157.875 131.685 158.382 132.036C158.928 132.387 159.201 132.893 159.201 133.556C159.201 134.804 158.714 135.623 157.739 136.013C158.791 137.066 161.034 137.592 164.465 137.592C168.481 137.592 170.684 134.005 171.074 126.83C169.28 128 166.98 128.585 164.172 128.585C162.886 128.585 161.599 128.39 160.312 128C159.064 127.571 157.797 126.889 156.51 125.953C155.263 125.017 154.229 123.633 153.411 121.8C152.631 119.929 152.241 117.745 152.241 115.25C152.241 110.883 153.45 107.529 155.867 105.19C158.324 102.85 161.521 101.681 165.459 101.681C167.916 101.681 170.06 102.305 171.893 103.552C173.881 102.305 175.382 101.681 176.396 101.681ZM171.132 124.9V124.198V104.897C169.729 104.079 167.955 103.669 165.81 103.669C163.665 103.669 161.794 104.703 160.195 106.769C158.597 108.797 157.797 111.624 157.797 115.25C157.797 118.681 158.441 121.43 159.727 123.496C161.014 125.563 162.691 126.596 164.757 126.596C167.331 126.596 169.456 126.031 171.132 124.9ZM188.183 113.905C188.222 117.18 189.158 120.085 190.991 122.619C192.862 125.115 194.948 126.362 197.249 126.362C200.641 126.362 203.37 125.076 205.437 122.502L206.841 123.204C205.71 125.076 204.228 126.44 202.396 127.298C200.602 128.156 198.224 128.585 195.26 128.585C193.779 128.585 192.355 128.37 190.991 127.942C189.626 127.474 188.281 126.733 186.955 125.719C185.629 124.666 184.577 123.126 183.797 121.098C183.017 119.071 182.627 116.653 182.627 113.846C182.627 110.415 183.68 107.529 185.785 105.19C187.93 102.85 190.893 101.681 194.675 101.681C198.808 101.681 201.889 102.85 203.916 105.19C205.944 107.49 206.958 110.395 206.958 113.905H188.183ZM188.242 112.091H201.226C200.992 109.284 200.388 107.139 199.413 105.658C198.477 104.176 196.82 103.435 194.441 103.435C193.077 103.435 191.751 104.235 190.464 105.833C189.217 107.432 188.476 109.518 188.242 112.091ZM211.003 128V126.772C213.108 126.772 214.337 126.382 214.688 125.602V105.833C212.27 105.638 211.042 105.541 211.003 105.541V104.196C211.744 104.196 213.186 103.786 215.331 102.967C217.515 102.11 219.055 101.681 219.951 101.681V104.313C222.018 102.558 224.182 101.681 226.444 101.681C231.123 101.681 234.125 102.811 235.451 105.073C237.634 102.811 240.071 101.681 242.762 101.681C249.312 101.681 252.587 103.903 252.587 108.348V125.602C252.938 126.382 254.167 126.772 256.272 126.772V128H243.639V126.772C245.744 126.772 246.973 126.382 247.324 125.602V110.512C247.324 107.978 246.953 106.204 246.212 105.19C245.471 104.176 244.204 103.669 242.411 103.669C240.11 103.669 237.985 104.605 236.036 106.477C236.191 106.984 236.269 107.607 236.269 108.348V125.602C236.62 126.382 237.849 126.772 239.954 126.772V128H227.321V126.772C229.426 126.772 230.655 126.382 231.006 125.602V110.512C231.006 107.978 230.635 106.204 229.894 105.19C229.154 104.176 227.886 103.669 226.093 103.669C223.87 103.669 221.823 104.527 219.951 106.243V125.602C220.302 126.382 221.531 126.772 223.636 126.772V128H211.003ZM264.948 113.905C264.987 117.18 265.923 120.085 267.755 122.619C269.627 125.115 271.713 126.362 274.013 126.362C277.406 126.362 280.135 125.076 282.202 122.502L283.605 123.204C282.475 125.076 280.993 126.44 279.16 127.298C277.367 128.156 274.988 128.585 272.025 128.585C270.543 128.585 269.12 128.37 267.755 127.942C266.391 127.474 265.045 126.733 263.72 125.719C262.394 124.666 261.341 123.126 260.561 121.098C259.782 119.071 259.392 116.653 259.392 113.846C259.392 110.415 260.444 107.529 262.55 105.19C264.694 102.85 267.658 101.681 271.44 101.681C275.573 101.681 278.653 102.85 280.681 105.19C282.709 107.49 283.722 110.395 283.722 113.905H264.948ZM265.006 112.091H277.991C277.757 109.284 277.152 107.139 276.178 105.658C275.242 104.176 273.585 103.435 271.206 103.435C269.841 103.435 268.516 104.235 267.229 105.833C265.981 107.432 265.24 109.518 265.006 112.091ZM287.768 128V126.772C289.873 126.772 291.101 126.382 291.452 125.602V105.833C289.035 105.638 287.807 105.541 287.768 105.541V104.196C288.508 104.196 289.951 103.786 292.096 102.967C294.279 102.11 295.819 101.681 296.716 101.681V104.371C298.822 102.577 301.142 101.681 303.676 101.681C307.302 101.681 309.915 102.363 311.513 103.728C313.151 105.053 313.97 107.139 313.97 109.986V125.602C314.321 126.382 315.549 126.772 317.655 126.772V128H305.021V126.772C307.127 126.772 308.355 126.382 308.706 125.602V109.576C308.706 105.638 306.912 103.669 303.325 103.669C300.869 103.669 298.666 104.527 296.716 106.243V125.602C297.067 126.382 298.295 126.772 300.401 126.772V128H287.768ZM328.867 93.7849V102.266H333.897V104.02H328.867V122.619C328.867 123.828 329.082 124.764 329.511 125.427C329.94 126.05 330.739 126.362 331.909 126.362C332.611 126.362 333.312 126.031 334.014 125.368C334.755 124.666 335.262 123.711 335.535 122.502L336.939 123.204C336.12 126.791 333.78 128.585 329.92 128.585C325.475 128.585 323.253 126.44 323.253 122.151V104.02H319.158V102.266C320.991 102.266 322.648 101.505 324.13 99.9845C325.612 98.4639 326.352 96.3973 326.352 93.7849H328.867Z" fill="black"/>
</g>
<path d="M38.9966 153C38.1682 153 37.4966 153.672 37.4966 154.5C37.4966 155.328 38.1682 156 38.9966 156V153ZM38.9966 156H328.004V153H38.9966V156Z" fill="black"/>
<path d="M39 0.5C38.1716 0.5 37.5 1.17157 37.5 2C37.5 2.82843 38.1716 3.5 39 3.5V0.5ZM39 3.5H328.007V0.5H39V3.5Z" fill="black"/>
<defs>
<clipPath id="clip0_483_1203">
<path d="M0 72C0 38.8629 26.8629 12 60 12H308C341.137 12 368 38.8629 368 72V143H0V72Z" fill="white"/>
</clipPath>
</defs>
</svg>
