<svg width="25" height="25" viewBox="0 0 25 25" fill="none" xmlns="http://www.w3.org/2000/svg">
<path d="M8.12516 2.0835H16.8752C20.2085 2.0835 22.9168 4.79183 22.9168 8.12516V16.8752C22.9168 18.4775 22.2803 20.0142 21.1473 21.1473C20.0142 22.2803 18.4775 22.9168 16.8752 22.9168H8.12516C4.79183 22.9168 2.0835 20.2085 2.0835 16.8752V8.12516C2.0835 6.52281 2.72003 4.98609 3.85306 3.85306C4.98609 2.72003 6.52281 2.0835 8.12516 2.0835ZM7.91683 4.16683C6.92227 4.16683 5.96844 4.56192 5.26518 5.26518C4.56192 5.96844 4.16683 6.92227 4.16683 7.91683V17.0835C4.16683 19.1564 5.84391 20.8335 7.91683 20.8335H17.0835C18.0781 20.8335 19.0319 20.4384 19.7351 19.7351C20.4384 19.0319 20.8335 18.0781 20.8335 17.0835V7.91683C20.8335 5.84391 19.1564 4.16683 17.0835 4.16683H7.91683ZM17.9689 5.72933C18.3142 5.72933 18.6454 5.86651 18.8896 6.1107C19.1338 6.35489 19.271 6.68608 19.271 7.03141C19.271 7.37675 19.1338 7.70794 18.8896 7.95212C18.6454 8.19631 18.3142 8.3335 17.9689 8.3335C17.6236 8.3335 17.2924 8.19631 17.0482 7.95212C16.804 7.70794 16.6668 7.37675 16.6668 7.03141C16.6668 6.68608 16.804 6.35489 17.0482 6.1107C17.2924 5.86651 17.6236 5.72933 17.9689 5.72933ZM12.5002 7.29183C13.8815 7.29183 15.2063 7.84056 16.183 8.81731C17.1598 9.79407 17.7085 11.1188 17.7085 12.5002C17.7085 13.8815 17.1598 15.2063 16.183 16.183C15.2063 17.1598 13.8815 17.7085 12.5002 17.7085C11.1188 17.7085 9.79407 17.1598 8.81731 16.183C7.84056 15.2063 7.29183 13.8815 7.29183 12.5002C7.29183 11.1188 7.84056 9.79407 8.81731 8.81731C9.79407 7.84056 11.1188 7.29183 12.5002 7.29183ZM12.5002 9.37516C11.6714 9.37516 10.8765 9.7044 10.2905 10.2905C9.7044 10.8765 9.37516 11.6714 9.37516 12.5002C9.37516 13.329 9.7044 14.1238 10.2905 14.7099C10.8765 15.2959 11.6714 15.6252 12.5002 15.6252C13.329 15.6252 14.1238 15.2959 14.7099 14.7099C15.2959 14.1238 15.6252 13.329 15.6252 12.5002C15.6252 11.6714 15.2959 10.8765 14.7099 10.2905C14.1238 9.7044 13.329 9.37516 12.5002 9.37516Z" fill="white"/>
</svg>
