<svg width="95" height="14" viewBox="0 0 95 14" fill="none" xmlns="http://www.w3.org/2000/svg">
<path d="M2.30998 2.785L0.91498 2.605V1.855H5.32498V2.605L3.92998 2.785V12.115L5.32498 12.28V13H0.929981V12.265L2.30998 12.115V2.785ZM7.72979 5.83L6.64979 5.56V4.75L8.79479 4.48H8.83979L9.15479 4.75V5.38L9.13979 5.74C9.49979 5.42 9.97479 5.13 10.5648 4.87C11.1548 4.61 11.7198 4.48 12.2598 4.48C12.8898 4.48 13.3748 4.6 13.7148 4.84C14.0648 5.08 14.3098 5.45 14.4498 5.95C14.5898 6.44 14.6598 7.105 14.6598 7.945V12.145L15.7098 12.25V13H12.1548V12.265L13.0848 12.145V7.93C13.0848 7.34 13.0448 6.88 12.9648 6.55C12.8848 6.21 12.7348 5.96 12.5148 5.8C12.2948 5.63 11.9748 5.545 11.5548 5.545C11.1948 5.545 10.8098 5.635 10.3998 5.815C9.98979 5.995 9.62479 6.205 9.30479 6.445V12.13L10.3248 12.265V13H6.78479V12.265L7.72979 12.13V5.83ZM19.3557 13.15C18.7857 13.15 18.3607 13.02 18.0807 12.76C17.8007 12.5 17.6607 12.055 17.6607 11.425V5.665H16.5807V4.99C16.6307 4.98 16.7707 4.945 17.0007 4.885C17.2307 4.825 17.3857 4.77 17.4657 4.72C17.6257 4.63 17.7507 4.45 17.8407 4.18C17.9207 3.99 18.0157 3.685 18.1257 3.265C18.2357 2.845 18.3007 2.595 18.3207 2.515H19.2057L19.2357 4.675H21.7407V5.665H19.2357V10.27C19.2357 10.84 19.2507 11.24 19.2807 11.47C19.3207 11.7 19.3957 11.85 19.5057 11.92C19.6257 11.99 19.8257 12.025 20.1057 12.025C20.3757 12.025 20.6707 11.99 20.9907 11.92C21.3207 11.85 21.5757 11.775 21.7557 11.695L21.9807 12.37C21.7407 12.55 21.3507 12.725 20.8107 12.895C20.2807 13.065 19.7957 13.15 19.3557 13.15ZM22.9291 12.265L24.0541 12.175V5.83L22.9741 5.56V4.75L25.0441 4.48H25.0741L25.4041 4.75V5.02L25.3591 6.19H25.4041C25.5041 6.02 25.6841 5.8 25.9441 5.53C26.2041 5.26 26.5391 5.015 26.9491 4.795C27.3591 4.565 27.8041 4.45 28.2841 4.45C28.4841 4.45 28.6491 4.475 28.7791 4.525V6.205C28.7091 6.155 28.5941 6.11 28.4341 6.07C28.2841 6.02 28.1141 5.995 27.9241 5.995C27.0941 5.995 26.3241 6.25 25.6141 6.76V12.16L27.5191 12.28V13H22.9291V12.265ZM29.7692 8.815C29.7692 7.915 29.9542 7.135 30.3242 6.475C30.6942 5.815 31.1792 5.315 31.7792 4.975C32.3892 4.625 33.0392 4.45 33.7292 4.45C34.9892 4.45 35.9342 4.85 36.5642 5.65C37.2042 6.45 37.5242 7.5 37.5242 8.8C37.5242 9.71 37.3392 10.495 36.9692 11.155C36.5992 11.815 36.1092 12.315 35.4992 12.655C34.8992 12.995 34.2542 13.165 33.5642 13.165C32.3042 13.165 31.3542 12.765 30.7142 11.965C30.0842 11.165 29.7692 10.115 29.7692 8.815ZM33.6542 12.31C34.3442 12.31 34.8742 12.025 35.2442 11.455C35.6142 10.885 35.7992 10.04 35.7992 8.92C35.7992 7.81 35.6292 6.93 35.2892 6.28C34.9492 5.63 34.4042 5.305 33.6542 5.305C32.9642 5.305 32.4292 5.59 32.0492 6.16C31.6792 6.73 31.4942 7.575 31.4942 8.695C31.4942 9.805 31.6692 10.685 32.0192 11.335C32.3692 11.985 32.9142 12.31 33.6542 12.31ZM42.1352 13.165C41.5352 13.165 40.9852 13.015 40.4852 12.715C39.9852 12.415 39.5852 11.955 39.2852 11.335C38.9952 10.715 38.8502 9.95 38.8502 9.04C38.8502 8.19 39.0252 7.415 39.3752 6.715C39.7252 6.015 40.2252 5.465 40.8752 5.065C41.5352 4.655 42.3102 4.45 43.2002 4.45C43.7102 4.45 44.1752 4.505 44.5952 4.615V1.81L43.0652 1.63V0.984999L45.7652 0.714999H45.8102L46.1402 0.955V12.235H47.0102V12.925C46.6902 12.995 46.4102 13.05 46.1702 13.09C45.9402 13.13 45.6952 13.15 45.4352 13.15C45.1752 13.15 44.9902 13.105 44.8802 13.015C44.7702 12.925 44.7152 12.735 44.7152 12.445V11.965C44.4352 12.305 44.0652 12.59 43.6052 12.82C43.1552 13.05 42.6652 13.165 42.1352 13.165ZM42.7352 12.1C43.1252 12.1 43.4902 12.015 43.8302 11.845C44.1702 11.665 44.4252 11.46 44.5952 11.23V5.74C44.5152 5.62 44.3252 5.515 44.0252 5.425C43.7352 5.325 43.4252 5.275 43.0952 5.275C42.3152 5.275 41.6902 5.575 41.2202 6.175C40.7602 6.765 40.5302 7.68 40.5302 8.92C40.5302 10 40.7352 10.8 41.1452 11.32C41.5552 11.84 42.0852 12.1 42.7352 12.1ZM55.0366 13.135C54.7566 13.135 54.5466 13.08 54.4066 12.97C54.2766 12.86 54.2116 12.68 54.2116 12.43V11.92C53.8816 12.25 53.4666 12.54 52.9666 12.79C52.4766 13.04 51.9816 13.165 51.4816 13.165C50.5516 13.165 49.8916 12.915 49.5016 12.415C49.1116 11.915 48.9166 11.09 48.9166 9.94V5.59L48.0766 5.35V4.69L50.1766 4.495H50.1916L50.4766 4.675V9.82C50.4766 10.4 50.5166 10.855 50.5966 11.185C50.6866 11.505 50.8366 11.745 51.0466 11.905C51.2666 12.055 51.5816 12.13 51.9916 12.13C52.3916 12.13 52.7666 12.045 53.1166 11.875C53.4666 11.705 53.7716 11.505 54.0316 11.275V5.59L52.9516 5.35V4.69L55.2316 4.495H55.2466L55.5916 4.675V12.235H56.4916L56.4766 12.91C56.1966 12.98 55.9516 13.035 55.7416 13.075C55.5416 13.115 55.3066 13.135 55.0366 13.135ZM57.5092 8.89C57.5092 8.06 57.6692 7.31 57.9892 6.64C58.3192 5.97 58.7992 5.44 59.4292 5.05C60.0692 4.65 60.8342 4.45 61.7242 4.45C62.1542 4.45 62.5242 4.49 62.8342 4.57C63.1442 4.65 63.5142 4.76 63.9442 4.9L63.8842 7.21H62.9092L62.5792 5.68C62.5192 5.4 62.1392 5.26 61.4392 5.26C60.7392 5.26 60.1842 5.545 59.7742 6.115C59.3742 6.675 59.1742 7.475 59.1742 8.515C59.1742 9.695 59.3992 10.595 59.8492 11.215C60.3092 11.825 60.9042 12.13 61.6342 12.13C62.0542 12.13 62.4492 12.065 62.8192 11.935C63.1992 11.805 63.5242 11.65 63.7942 11.47L64.0792 12.07C63.8092 12.35 63.4092 12.605 62.8792 12.835C62.3592 13.055 61.8292 13.165 61.2892 13.165C60.4692 13.165 59.7742 12.98 59.2042 12.61C58.6442 12.24 58.2192 11.735 57.9292 11.095C57.6492 10.445 57.5092 9.71 57.5092 8.89ZM67.9446 13.15C67.3746 13.15 66.9496 13.02 66.6696 12.76C66.3896 12.5 66.2496 12.055 66.2496 11.425V5.665H65.1696V4.99C65.2196 4.98 65.3596 4.945 65.5896 4.885C65.8196 4.825 65.9746 4.77 66.0546 4.72C66.2146 4.63 66.3396 4.45 66.4296 4.18C66.5096 3.99 66.6046 3.685 66.7146 3.265C66.8246 2.845 66.8896 2.595 66.9096 2.515H67.7946L67.8246 4.675H70.3296V5.665H67.8246V10.27C67.8246 10.84 67.8396 11.24 67.8696 11.47C67.9096 11.7 67.9846 11.85 68.0946 11.92C68.2146 11.99 68.4146 12.025 68.6946 12.025C68.9646 12.025 69.2596 11.99 69.5796 11.92C69.9096 11.85 70.1646 11.775 70.3446 11.695L70.5696 12.37C70.3296 12.55 69.9396 12.725 69.3996 12.895C68.8696 13.065 68.3846 13.15 67.9446 13.15ZM73.258 3.175C72.938 3.175 72.698 3.085 72.538 2.905C72.378 2.725 72.298 2.495 72.298 2.215C72.298 1.895 72.393 1.63 72.583 1.42C72.783 1.21 73.053 1.105 73.393 1.105C73.733 1.105 73.983 1.195 74.143 1.375C74.303 1.555 74.383 1.785 74.383 2.065C74.383 2.405 74.283 2.675 74.083 2.875C73.893 3.075 73.623 3.175 73.273 3.175H73.258ZM72.658 5.83L71.518 5.56V4.765L73.843 4.48H73.873L74.218 4.75V12.145L75.418 12.265V13H71.443V12.265L72.658 12.13V5.83ZM76.4831 8.815C76.4831 7.915 76.6681 7.135 77.0381 6.475C77.4081 5.815 77.8931 5.315 78.4931 4.975C79.1031 4.625 79.7531 4.45 80.4431 4.45C81.7031 4.45 82.6481 4.85 83.2781 5.65C83.9181 6.45 84.2381 7.5 84.2381 8.8C84.2381 9.71 84.0531 10.495 83.6831 11.155C83.3131 11.815 82.8231 12.315 82.2131 12.655C81.6131 12.995 80.9681 13.165 80.2781 13.165C79.0181 13.165 78.0681 12.765 77.4281 11.965C76.7981 11.165 76.4831 10.115 76.4831 8.815ZM80.3681 12.31C81.0581 12.31 81.5881 12.025 81.9581 11.455C82.3281 10.885 82.5131 10.04 82.5131 8.92C82.5131 7.81 82.3431 6.93 82.0031 6.28C81.6631 5.63 81.1181 5.305 80.3681 5.305C79.6781 5.305 79.1431 5.59 78.7631 6.16C78.3931 6.73 78.2081 7.575 78.2081 8.695C78.2081 9.805 78.3831 10.685 78.7331 11.335C79.0831 11.985 79.6281 12.31 80.3681 12.31ZM86.5091 5.83L85.4291 5.56V4.75L87.5741 4.48H87.6191L87.9341 4.75V5.38L87.9191 5.74C88.2791 5.42 88.7541 5.13 89.3441 4.87C89.9341 4.61 90.4991 4.48 91.0391 4.48C91.6691 4.48 92.1541 4.6 92.4941 4.84C92.8441 5.08 93.0891 5.45 93.2291 5.95C93.3691 6.44 93.4391 7.105 93.4391 7.945V12.145L94.4891 12.25V13H90.9341V12.265L91.8641 12.145V7.93C91.8641 7.34 91.8241 6.88 91.7441 6.55C91.6641 6.21 91.5141 5.96 91.2941 5.8C91.0741 5.63 90.7541 5.545 90.3341 5.545C89.9741 5.545 89.5891 5.635 89.1791 5.815C88.7691 5.995 88.4041 6.205 88.0841 6.445V12.13L89.1041 12.265V13H85.5641V12.265L86.5091 12.13V5.83Z" fill="white"/>
</svg>
