<svg width="25" height="25" viewBox="0 0 25 25" fill="none" xmlns="http://www.w3.org/2000/svg">
<path d="M12.4999 3.125C18.5416 3.125 23.4385 6.94167 23.4385 11.651C23.4385 16.3594 18.5416 20.176 12.501 20.176C11.8995 20.1763 11.2986 20.1381 10.702 20.0615L6.11035 23.0646C5.58848 23.3406 5.4041 23.3104 5.61868 22.6344L6.54785 18.8031C3.54785 17.2823 1.56348 14.6469 1.56348 11.651C1.56348 6.94271 6.45931 3.125 12.501 3.125H12.4999ZM18.6541 11.5208L20.1854 10.0375C20.2737 9.94574 20.323 9.82326 20.3228 9.69588C20.3227 9.56849 20.2731 9.44614 20.1845 9.35459C20.0959 9.26304 19.9753 9.20945 19.848 9.20509C19.7207 9.20074 19.5966 9.24597 19.502 9.33125L17.4937 11.275V9.66875C17.4937 9.53835 17.4419 9.41329 17.3497 9.32109C17.2575 9.22888 17.1324 9.17708 17.002 9.17708C16.8716 9.17708 16.7466 9.22888 16.6544 9.32109C16.5622 9.41329 16.5104 9.53835 16.5104 9.66875V12.3323C16.492 12.4083 16.492 12.4876 16.5104 12.5635V14.0625C16.5104 14.1929 16.5622 14.318 16.6544 14.4102C16.7466 14.5024 16.8716 14.5542 17.002 14.5542C17.1324 14.5542 17.2575 14.5024 17.3497 14.4102C17.4419 14.318 17.4937 14.1929 17.4937 14.0625V12.6427L17.9385 12.2125L19.426 14.3302C19.4631 14.3831 19.5103 14.4281 19.5649 14.4627C19.6194 14.4974 19.6802 14.5209 19.7439 14.5321C19.8075 14.5432 19.8727 14.5417 19.9358 14.5276C19.9989 14.5135 20.0585 14.4871 20.1114 14.45C20.1643 14.4129 20.2093 14.3657 20.2439 14.3111C20.2786 14.2566 20.3021 14.1957 20.3132 14.1321C20.3244 14.0685 20.3228 14.0032 20.3088 13.9402C20.2947 13.8771 20.2683 13.8175 20.2312 13.7646L18.6541 11.5198V11.5208ZM15.5729 13.525H14.052V9.68437C14.0462 9.55803 13.9919 9.43878 13.9004 9.35143C13.809 9.26408 13.6874 9.21533 13.5609 9.21533C13.4344 9.21533 13.3128 9.26408 13.2213 9.35143C13.1298 9.43878 13.0755 9.55803 13.0697 9.68437V14.0167C13.0697 14.2875 13.2885 14.5083 13.5604 14.5083H15.5729C15.7032 14.5083 15.8283 14.4565 15.9205 14.3643C16.0127 14.2721 16.0645 14.1471 16.0645 14.0167C16.0645 13.8863 16.0127 13.7612 15.9205 13.669C15.8283 13.5768 15.7032 13.525 15.5729 13.525ZM9.47181 12.3885L10.1968 10.6094L10.8614 12.3875L9.47181 12.3885ZM12.0999 12.8958L12.102 12.8792C12.1018 12.7553 12.0545 12.6362 11.9697 12.5458L10.8801 9.62917C10.8345 9.49018 10.7475 9.36843 10.6308 9.2802C10.514 9.19197 10.3732 9.14146 10.227 9.13542C10.0798 9.13477 9.93581 9.17897 9.8143 9.26215C9.69279 9.34533 9.59949 9.46353 9.54681 9.60104L7.81556 13.8458C7.76625 13.9666 7.76691 14.1019 7.81741 14.2222C7.86791 14.3424 7.9641 14.4377 8.08483 14.487C8.20556 14.5363 8.34093 14.5356 8.46117 14.4851C8.58141 14.4346 8.67666 14.3384 8.72598 14.2177L9.07181 13.3708H11.2281L11.5385 14.2042C11.5597 14.2665 11.5931 14.3239 11.6369 14.373C11.6806 14.4221 11.7338 14.4619 11.7933 14.4901C11.8527 14.5183 11.9172 14.5343 11.9829 14.5371C12.0487 14.54 12.1143 14.5295 12.1759 14.5065C12.2376 14.4835 12.294 14.4484 12.3418 14.4032C12.3896 14.358 12.4278 14.3036 12.4542 14.2434C12.4807 14.1831 12.4947 14.1182 12.4956 14.0524C12.4965 13.9866 12.4841 13.9213 12.4593 13.8604L12.0999 12.8958ZM8.63952 9.68958C8.63952 9.55937 8.58786 9.43447 8.49588 9.34229C8.4039 9.25011 8.27911 9.19819 8.14889 9.19792H4.76868C4.63829 9.19792 4.51323 9.24972 4.42102 9.34192C4.32882 9.43413 4.27702 9.55919 4.27702 9.68958C4.27702 9.81998 4.32882 9.94504 4.42102 10.0372C4.51323 10.1294 4.63829 10.1812 4.76868 10.1812H5.97702V14.0729C5.97702 14.2033 6.02882 14.3284 6.12102 14.4206C6.21323 14.5128 6.33829 14.5646 6.46868 14.5646C6.59908 14.5646 6.72414 14.5128 6.81635 14.4206C6.90855 14.3284 6.96035 14.2033 6.96035 14.0729V10.1812H8.14785C8.27825 10.1812 8.40331 10.1294 8.49551 10.0372C8.58772 9.94504 8.63952 9.81998 8.63952 9.68958Z" fill="white"/>
</svg>
