<svg width="50" height="13" viewBox="0 0 50 13" fill="none" xmlns="http://www.w3.org/2000/svg">
<path d="M2.23111 1.785L1.01611 1.605V0.855H5.32111V1.605L3.83611 1.785V11.115L7.70611 10.98L8.59111 8.46L9.50611 8.595L8.98111 12H0.986113V11.265L2.23111 11.115V1.785ZM15.0079 12.165C13.9879 12.165 13.1229 11.93 12.4129 11.46C11.7129 10.99 11.1829 10.33 10.8229 9.48C10.4629 8.62 10.2829 7.625 10.2829 6.495C10.2829 5.345 10.4979 4.335 10.9279 3.465C11.3679 2.595 11.9679 1.925 12.7279 1.455C13.4879 0.974999 14.3429 0.734999 15.2929 0.734999C16.8529 0.734999 18.0429 1.23 18.8629 2.22C19.6929 3.2 20.1079 4.56 20.1079 6.3C20.1079 7.47 19.8829 8.5 19.433 9.39C18.9929 10.27 18.3829 10.955 17.6029 11.445C16.8329 11.925 15.9679 12.165 15.0079 12.165ZM15.2029 1.515C14.2329 1.515 13.4679 1.94 12.9079 2.79C12.3479 3.63 12.0679 4.865 12.0679 6.495C12.0679 7.995 12.3379 9.185 12.8779 10.065C13.4279 10.935 14.1929 11.37 15.1729 11.37C16.1329 11.37 16.8929 10.935 17.4529 10.065C18.0229 9.195 18.3079 7.945 18.3079 6.315C18.3079 4.805 18.0379 3.63 17.4979 2.79C16.9579 1.94 16.1929 1.515 15.2029 1.515ZM26.4481 12.165C25.3681 12.165 24.4331 11.925 23.6431 11.445C22.8631 10.965 22.2681 10.305 21.8581 9.465C21.4481 8.615 21.2431 7.655 21.2431 6.585C21.2431 5.355 21.4831 4.3 21.9631 3.42C22.4531 2.54 23.1281 1.875 23.9881 1.425C24.8481 0.964999 25.8281 0.734999 26.9281 0.734999C27.9381 0.734999 29.1031 0.889999 30.4231 1.2L30.2881 3.795H29.2231L28.8631 1.995C28.7231 1.885 28.4831 1.78 28.1431 1.68C27.8131 1.58 27.3681 1.53 26.8081 1.53C26.0781 1.53 25.4331 1.71 24.8731 2.07C24.3131 2.43 23.8731 2.965 23.5531 3.675C23.2431 4.385 23.0881 5.245 23.0881 6.255C23.0881 7.185 23.2131 8.035 23.4631 8.805C23.7231 9.575 24.1131 10.195 24.6331 10.665C25.1631 11.125 25.8081 11.355 26.5681 11.355C27.0481 11.355 27.5031 11.3 27.9331 11.19C28.3631 11.07 28.6931 10.915 28.9231 10.725V7.38L27.0331 7.23V6.345H31.4131V7.23L30.5431 7.365V11.4C30.3231 11.41 29.9581 11.495 29.4481 11.655C28.9281 11.815 28.4381 11.94 27.9781 12.03C27.5181 12.12 27.0081 12.165 26.4481 12.165ZM33.9067 1.785L32.5117 1.605V0.855H36.9217V1.605L35.5267 1.785V11.115L36.9217 11.28V12H32.5267V11.265L33.9067 11.115V1.785ZM39.7015 1.785L38.5015 1.605V0.855H41.2915L46.2865 8.175L47.1265 9.765V1.785L45.8215 1.605V0.855H49.3615V1.605L48.1615 1.785V12H46.9765L41.8765 4.515L40.7215 2.535V11.115L42.1465 11.265V12H38.5015V11.265L39.7015 11.1V1.785Z" fill="#FCF7F7"/>
</svg>
