<svg width="65" height="17" viewBox="0 0 65 17" fill="none" xmlns="http://www.w3.org/2000/svg">
<path d="M1.57426 1.785L-0.0607421 1.605V0.855H3.91426L6.02926 7.605L6.52426 9.51L6.97426 7.605L9.07426 0.855H13.0193V1.605L11.3693 1.785L12.5693 11.1L13.8743 11.265V12H9.55426V11.265L10.9193 11.115L10.2443 4.38L9.92926 1.485L9.29926 3.645L6.79426 11.49H5.81926L3.38926 4.305L2.50426 1.47L2.23426 4.38L1.63426 11.115L3.11926 11.265V12H-0.795742V11.265L0.479258 11.115L1.57426 1.785ZM14.6428 9.75C14.6428 8.81 15.1128 8.12 16.0528 7.68C16.9928 7.23 18.1828 6.99 19.6228 6.96V6.54C19.6228 6.07 19.5728 5.7 19.4728 5.43C19.3728 5.16 19.1978 4.965 18.9478 4.845C18.7078 4.715 18.3628 4.65 17.9128 4.65C17.4028 4.65 16.9428 4.725 16.5328 4.875C16.1328 5.015 15.7328 5.19 15.3328 5.4L14.9578 4.62C15.0878 4.51 15.3278 4.365 15.6778 4.185C16.0278 4.005 16.4328 3.845 16.8928 3.705C17.3528 3.565 17.8128 3.495 18.2728 3.495C18.9828 3.495 19.5428 3.595 19.9528 3.795C20.3728 3.985 20.6728 4.295 20.8528 4.725C21.0328 5.155 21.1228 5.73 21.1228 6.45V11.265H22.0078V11.925C21.8078 11.975 21.5528 12.025 21.2428 12.075C20.9428 12.125 20.6778 12.15 20.4478 12.15C20.1678 12.15 19.9778 12.105 19.8778 12.015C19.7778 11.935 19.7278 11.75 19.7278 11.46V10.965C19.4278 11.265 19.0578 11.54 18.6178 11.79C18.1878 12.04 17.6978 12.165 17.1478 12.165C16.4278 12.165 15.8278 11.96 15.3478 11.55C14.8778 11.13 14.6428 10.53 14.6428 9.75ZM17.7928 11.145C18.0528 11.145 18.3528 11.065 18.6928 10.905C19.0328 10.745 19.3428 10.555 19.6228 10.335V7.755C18.5328 7.755 17.7078 7.925 17.1478 8.265C16.5978 8.595 16.3228 9.03 16.3228 9.57C16.3228 10.11 16.4528 10.51 16.7128 10.77C16.9828 11.02 17.3428 11.145 17.7928 11.145ZM23.951 4.83L22.871 4.56V3.75L25.016 3.48H25.061L25.376 3.75V4.38L25.361 4.74C25.721 4.42 26.196 4.13 26.786 3.87C27.376 3.61 27.941 3.48 28.481 3.48C29.111 3.48 29.596 3.6 29.936 3.84C30.286 4.08 30.531 4.45 30.671 4.95C30.811 5.44 30.881 6.105 30.881 6.945V11.145L31.931 11.25V12H28.376V11.265L29.306 11.145V6.93C29.306 6.34 29.266 5.88 29.186 5.55C29.106 5.21 28.956 4.96 28.736 4.8C28.516 4.63 28.196 4.545 27.776 4.545C27.416 4.545 27.031 4.635 26.621 4.815C26.211 4.995 25.846 5.205 25.526 5.445V11.13L26.546 11.265V12H23.006V11.265L23.951 11.13V4.83ZM33.0119 9.75C33.0119 8.81 33.4819 8.12 34.4219 7.68C35.3619 7.23 36.5519 6.99 37.9919 6.96V6.54C37.9919 6.07 37.9419 5.7 37.8419 5.43C37.7419 5.16 37.5669 4.965 37.3169 4.845C37.0769 4.715 36.7319 4.65 36.2819 4.65C35.7719 4.65 35.3119 4.725 34.9019 4.875C34.5019 5.015 34.1019 5.19 33.7019 5.4L33.3269 4.62C33.4569 4.51 33.6969 4.365 34.0469 4.185C34.3969 4.005 34.8019 3.845 35.2619 3.705C35.7219 3.565 36.1819 3.495 36.6419 3.495C37.3519 3.495 37.9119 3.595 38.3219 3.795C38.7419 3.985 39.0419 4.295 39.2219 4.725C39.4019 5.155 39.4919 5.73 39.4919 6.45V11.265H40.3769V11.925C40.1769 11.975 39.9219 12.025 39.6119 12.075C39.3119 12.125 39.0469 12.15 38.8169 12.15C38.5369 12.15 38.3469 12.105 38.2469 12.015C38.1469 11.935 38.0969 11.75 38.0969 11.46V10.965C37.7969 11.265 37.4269 11.54 36.9869 11.79C36.5569 12.04 36.0669 12.165 35.5169 12.165C34.7969 12.165 34.1969 11.96 33.7169 11.55C33.2469 11.13 33.0119 10.53 33.0119 9.75ZM36.1619 11.145C36.4219 11.145 36.7219 11.065 37.0619 10.905C37.4019 10.745 37.7119 10.555 37.9919 10.335V7.755C36.9019 7.755 36.0769 7.925 35.5169 8.265C34.9669 8.595 34.6919 9.03 34.6919 9.57C34.6919 10.11 34.8219 10.51 35.0819 10.77C35.3519 11.02 35.7119 11.145 36.1619 11.145ZM45.0051 16.05C43.7251 16.05 42.7951 15.845 42.2151 15.435C41.6451 15.035 41.3601 14.48 41.3601 13.77C41.3601 13.33 41.4951 12.925 41.7651 12.555C42.0451 12.185 42.3751 11.905 42.7551 11.715C42.2951 11.455 42.0651 11.035 42.0651 10.455C42.0651 10.095 42.1701 9.755 42.3801 9.435C42.5901 9.115 42.8651 8.87 43.2051 8.7C42.7051 8.48 42.3201 8.165 42.0501 7.755C41.7901 7.345 41.6601 6.86 41.6601 6.3C41.6601 5.72 41.8201 5.215 42.1401 4.785C42.4701 4.355 42.9001 4.025 43.4301 3.795C43.9701 3.565 44.5401 3.45 45.1401 3.45C46.1501 3.45 46.9401 3.66 47.5101 4.08C47.6601 3.93 47.8901 3.785 48.2001 3.645C48.5101 3.505 48.8401 3.435 49.1901 3.435H49.7001V4.755H48.0501C48.2901 5.125 48.4101 5.555 48.4101 6.045C48.4101 6.635 48.2601 7.16 47.9601 7.62C47.6701 8.07 47.2601 8.42 46.7301 8.67C46.2101 8.92 45.6201 9.045 44.9601 9.045C44.5301 9.045 44.1451 9 43.8051 8.91C43.6651 9.05 43.5501 9.205 43.4601 9.375C43.3701 9.545 43.3251 9.71 43.3251 9.87C43.3251 10.23 43.4451 10.48 43.6851 10.62C43.9251 10.75 44.3551 10.815 44.9751 10.815H46.6701C47.6401 10.815 48.3601 11 48.8301 11.37C49.3001 11.74 49.5351 12.265 49.5351 12.945C49.5351 13.515 49.3301 14.035 48.9201 14.505C48.5101 14.985 47.9551 15.36 47.2551 15.63C46.5651 15.91 45.8151 16.05 45.0051 16.05ZM45.1101 8.22C46.2501 8.22 46.8201 7.545 46.8201 6.195C46.8201 5.525 46.6701 5.035 46.3701 4.725C46.0801 4.405 45.6401 4.245 45.0501 4.245C44.5001 4.245 44.0651 4.4 43.7451 4.71C43.4251 5.01 43.2651 5.495 43.2651 6.165C43.2651 6.795 43.4151 7.295 43.7151 7.665C44.0251 8.035 44.4901 8.22 45.1101 8.22ZM45.1401 15.18C45.6301 15.18 46.0901 15.105 46.5201 14.955C46.9601 14.815 47.3151 14.6 47.5851 14.31C47.8551 14.03 47.9901 13.7 47.9901 13.32C47.9901 12.87 47.8701 12.54 47.6301 12.33C47.3901 12.13 46.9251 12.03 46.2351 12.03H44.4651C44.0651 12.03 43.7501 12.005 43.5201 11.955C43.1101 12.405 42.9051 12.91 42.9051 13.47C42.9051 14.03 43.0751 14.455 43.4151 14.745C43.7551 15.035 44.3301 15.18 45.1401 15.18ZM54.2214 12.165C53.0114 12.165 52.0864 11.77 51.4464 10.98C50.8164 10.19 50.5014 9.135 50.5014 7.815C50.5014 6.945 50.6664 6.18 50.9964 5.52C51.3264 4.86 51.7864 4.35 52.3764 3.99C52.9764 3.63 53.6564 3.45 54.4164 3.45C55.3464 3.45 56.0664 3.71 56.5764 4.23C57.0964 4.74 57.3714 5.475 57.4014 6.435C57.4014 7.045 57.3664 7.51 57.2964 7.83H52.1364C52.1564 8.82 52.3864 9.62 52.8264 10.23C53.2664 10.83 53.8914 11.13 54.7014 11.13C55.1014 11.13 55.5164 11.06 55.9464 10.92C56.3864 10.77 56.7264 10.595 56.9664 10.395L57.2514 11.055C56.9614 11.355 56.5314 11.615 55.9614 11.835C55.3914 12.055 54.8114 12.165 54.2214 12.165ZM55.7514 7.035C55.7814 6.825 55.7964 6.61 55.7964 6.39C55.7864 5.74 55.6464 5.23 55.3764 4.86C55.1164 4.48 54.7014 4.29 54.1314 4.29C53.5514 4.29 53.0864 4.5 52.7364 4.92C52.3964 5.34 52.2014 6.045 52.1514 7.035H55.7514ZM58.7206 11.265L59.8456 11.175V4.83L58.7656 4.56V3.75L60.8356 3.48H60.8656L61.1956 3.75V4.02L61.1506 5.19H61.1956C61.2956 5.02 61.4756 4.8 61.7356 4.53C61.9956 4.26 62.3306 4.015 62.7406 3.795C63.1506 3.565 63.5956 3.45 64.0756 3.45C64.2756 3.45 64.4406 3.475 64.5706 3.525V5.205C64.5006 5.155 64.3856 5.11 64.2256 5.07C64.0756 5.02 63.9056 4.995 63.7156 4.995C62.8856 4.995 62.1156 5.25 61.4056 5.76V11.16L63.3106 11.28V12H58.7206V11.265Z" fill="#FAF4F4"/>
</svg>
