<svg width="39" height="13" viewBox="0 0 39 13" fill="none" xmlns="http://www.w3.org/2000/svg">
<path d="M2.45561 1.785L0.820606 1.605V0.855H4.79561L6.91061 7.605L7.40561 9.51L7.85561 7.605L9.95561 0.855H13.9006V1.605L12.2506 1.785L13.4506 11.1L14.7556 11.265V12H10.4356V11.265L11.8006 11.115L11.1256 4.38L10.8106 1.485L10.1806 3.645L7.67561 11.49H6.70061L4.27061 4.305L3.38561 1.47L3.11561 4.38L2.51561 11.115L4.00061 11.265V12H0.0856055V11.265L1.36061 11.115L2.45561 1.785ZM15.5241 7.815C15.5241 6.915 15.7091 6.135 16.0791 5.475C16.4491 4.815 16.9341 4.315 17.5341 3.975C18.1441 3.625 18.7941 3.45 19.4841 3.45C20.7441 3.45 21.6891 3.85 22.3191 4.65C22.9591 5.45 23.2791 6.5 23.2791 7.8C23.2791 8.71 23.0941 9.495 22.7241 10.155C22.3541 10.815 21.8641 11.315 21.2541 11.655C20.6541 11.995 20.0091 12.165 19.3191 12.165C18.0591 12.165 17.1091 11.765 16.4691 10.965C15.8391 10.165 15.5241 9.115 15.5241 7.815ZM19.4091 11.31C20.0991 11.31 20.6291 11.025 20.9991 10.455C21.3691 9.885 21.5541 9.04 21.5541 7.92C21.5541 6.81 21.3841 5.93 21.0441 5.28C20.7041 4.63 20.1591 4.305 19.4091 4.305C18.7191 4.305 18.1841 4.59 17.8041 5.16C17.4341 5.73 17.2491 6.575 17.2491 7.695C17.2491 8.805 17.4241 9.685 17.7741 10.335C18.1241 10.985 18.6691 11.31 19.4091 11.31ZM24.6801 11.265L25.8051 11.175V4.83L24.7251 4.56V3.75L26.7951 3.48H26.8251L27.1551 3.75V4.02L27.1101 5.19H27.1551C27.2551 5.02 27.4351 4.8 27.6951 4.53C27.9551 4.26 28.2901 4.015 28.7001 3.795C29.1101 3.565 29.5551 3.45 30.0351 3.45C30.2351 3.45 30.4001 3.475 30.5301 3.525V5.205C30.4601 5.155 30.3451 5.11 30.1851 5.07C30.0351 5.02 29.8651 4.995 29.6751 4.995C28.8451 4.995 28.0751 5.25 27.3651 5.76V11.16L29.2701 11.28V12H24.6801V11.265ZM35.2102 12.165C34.0002 12.165 33.0752 11.77 32.4352 10.98C31.8052 10.19 31.4902 9.135 31.4902 7.815C31.4902 6.945 31.6552 6.18 31.9852 5.52C32.3152 4.86 32.7752 4.35 33.3652 3.99C33.9652 3.63 34.6452 3.45 35.4052 3.45C36.3352 3.45 37.0552 3.71 37.5652 4.23C38.0852 4.74 38.3602 5.475 38.3902 6.435C38.3902 7.045 38.3552 7.51 38.2852 7.83H33.1252C33.1452 8.82 33.3752 9.62 33.8152 10.23C34.2552 10.83 34.8802 11.13 35.6902 11.13C36.0902 11.13 36.5052 11.06 36.9352 10.92C37.3752 10.77 37.7152 10.595 37.9552 10.395L38.2402 11.055C37.9502 11.355 37.5202 11.615 36.9502 11.835C36.3802 12.055 35.8002 12.165 35.2102 12.165ZM36.7402 7.035C36.7702 6.825 36.7852 6.61 36.7852 6.39C36.7752 5.74 36.6352 5.23 36.3652 4.86C36.1052 4.48 35.6902 4.29 35.1202 4.29C34.5402 4.29 34.0752 4.5 33.7252 4.92C33.3852 5.34 33.1902 6.045 33.1402 7.035H36.7402Z" fill="white"/>
</svg>
