<svg width="89" height="16" viewBox="0 0 89 16" fill="none" xmlns="http://www.w3.org/2000/svg">
<path d="M5.6725 12.165C4.6525 12.165 3.7875 11.93 3.0775 11.46C2.3775 10.99 1.8475 10.33 1.4875 9.48C1.1275 8.62 0.9475 7.625 0.9475 6.495C0.9475 5.345 1.1625 4.335 1.5925 3.465C2.0325 2.595 2.6325 1.925 3.3925 1.455C4.1525 0.974999 5.0075 0.734999 5.9575 0.734999C7.5175 0.734999 8.7075 1.23 9.5275 2.22C10.3575 3.2 10.7725 4.56 10.7725 6.3C10.7725 7.47 10.5475 8.5 10.0975 9.39C9.6575 10.27 9.0475 10.955 8.2675 11.445C7.4975 11.925 6.6325 12.165 5.6725 12.165ZM5.8675 1.515C4.8975 1.515 4.1325 1.94 3.5725 2.79C3.0125 3.63 2.7325 4.865 2.7325 6.495C2.7325 7.995 3.0025 9.185 3.5425 10.065C4.0925 10.935 4.8575 11.37 5.8375 11.37C6.7975 11.37 7.5575 10.935 8.1175 10.065C8.6875 9.195 8.9725 7.945 8.9725 6.315C8.9725 4.805 8.7025 3.63 8.1625 2.79C7.6225 1.94 6.8575 1.515 5.8675 1.515ZM18.7627 12.135C18.4827 12.135 18.2727 12.08 18.1327 11.97C18.0027 11.86 17.9377 11.68 17.9377 11.43V10.92C17.6077 11.25 17.1927 11.54 16.6927 11.79C16.2027 12.04 15.7077 12.165 15.2077 12.165C14.2777 12.165 13.6177 11.915 13.2277 11.415C12.8377 10.915 12.6427 10.09 12.6427 8.94V4.59L11.8027 4.35V3.69L13.9027 3.495H13.9177L14.2027 3.675V8.82C14.2027 9.4 14.2427 9.855 14.3227 10.185C14.4127 10.505 14.5627 10.745 14.7727 10.905C14.9927 11.055 15.3077 11.13 15.7177 11.13C16.1177 11.13 16.4927 11.045 16.8427 10.875C17.1927 10.705 17.4977 10.505 17.7577 10.275V4.59L16.6777 4.35V3.69L18.9577 3.495H18.9727L19.3177 3.675V11.235H20.2177L20.2027 11.91C19.9227 11.98 19.6777 12.035 19.4677 12.075C19.2677 12.115 19.0327 12.135 18.7627 12.135ZM21.4452 11.265L22.5702 11.175V4.83L21.4902 4.56V3.75L23.5602 3.48H23.5902L23.9202 3.75V4.02L23.8752 5.19H23.9202C24.0202 5.02 24.2002 4.8 24.4602 4.53C24.7202 4.26 25.0552 4.015 25.4652 3.795C25.8752 3.565 26.3202 3.45 26.8002 3.45C27.0002 3.45 27.1652 3.475 27.2952 3.525V5.205C27.2252 5.155 27.1102 5.11 26.9502 5.07C26.8002 5.02 26.6302 4.995 26.4402 4.995C25.6102 4.995 24.8402 5.25 24.1302 5.76V11.16L26.0352 11.28V12H21.4452V11.265ZM35.5199 0.765H37.1699L40.8149 11.115L41.7449 11.265V12H37.7849V11.265L39.0299 11.115L38.3249 8.895H33.9449L33.2399 11.115L34.5299 11.265V12H30.9749V11.265L31.9049 11.115L35.5199 0.765ZM36.4649 3.165L36.0899 1.845L35.7299 3.195L34.2149 8.01H38.0399L36.4649 3.165ZM42.0507 7.89C42.0507 7.06 42.2107 6.31 42.5307 5.64C42.8607 4.97 43.3407 4.44 43.9707 4.05C44.6107 3.65 45.3757 3.45 46.2657 3.45C46.6957 3.45 47.0657 3.49 47.3757 3.57C47.6857 3.65 48.0557 3.76 48.4857 3.9L48.4257 6.21H47.4507L47.1207 4.68C47.0607 4.4 46.6807 4.26 45.9807 4.26C45.2807 4.26 44.7257 4.545 44.3157 5.115C43.9157 5.675 43.7157 6.475 43.7157 7.515C43.7157 8.695 43.9407 9.595 44.3907 10.215C44.8507 10.825 45.4457 11.13 46.1757 11.13C46.5957 11.13 46.9907 11.065 47.3607 10.935C47.7407 10.805 48.0657 10.65 48.3357 10.47L48.6207 11.07C48.3507 11.35 47.9507 11.605 47.4207 11.835C46.9007 12.055 46.3707 12.165 45.8307 12.165C45.0107 12.165 44.3157 11.98 43.7457 11.61C43.1857 11.24 42.7607 10.735 42.4707 10.095C42.1907 9.445 42.0507 8.71 42.0507 7.89ZM52.4861 12.15C51.9161 12.15 51.4911 12.02 51.2111 11.76C50.9311 11.5 50.7911 11.055 50.7911 10.425V4.665H49.7111V3.99C49.7611 3.98 49.9011 3.945 50.1311 3.885C50.3611 3.825 50.5161 3.77 50.5961 3.72C50.7561 3.63 50.8811 3.45 50.9711 3.18C51.0511 2.99 51.1461 2.685 51.2561 2.265C51.3661 1.845 51.4311 1.595 51.4511 1.515H52.3361L52.3661 3.675H54.8711V4.665H52.3661V9.27C52.3661 9.84 52.3811 10.24 52.4111 10.47C52.4511 10.7 52.5261 10.85 52.6361 10.92C52.7561 10.99 52.9561 11.025 53.2361 11.025C53.5061 11.025 53.8011 10.99 54.1211 10.92C54.4511 10.85 54.7061 10.775 54.8861 10.695L55.1111 11.37C54.8711 11.55 54.4811 11.725 53.9411 11.895C53.4111 12.065 52.9261 12.15 52.4861 12.15ZM57.7995 2.175C57.4795 2.175 57.2395 2.085 57.0795 1.905C56.9195 1.725 56.8395 1.495 56.8395 1.215C56.8395 0.894999 56.9345 0.629999 57.1245 0.42C57.3245 0.21 57.5945 0.104999 57.9345 0.104999C58.2745 0.104999 58.5245 0.194999 58.6845 0.374999C58.8445 0.555 58.9245 0.785 58.9245 1.065C58.9245 1.405 58.8245 1.675 58.6245 1.875C58.4345 2.075 58.1645 2.175 57.8145 2.175H57.7995ZM57.1995 4.83L56.0595 4.56V3.765L58.3845 3.48H58.4145L58.7595 3.75V11.145L59.9595 11.265V12H55.9845V11.265L57.1995 11.13V4.83ZM60.3346 3.675H63.8146V4.38L62.7496 4.575L64.2646 8.895L64.8946 10.8L65.4346 8.955L66.9496 4.575L65.9296 4.38V3.675H68.9746V4.38L68.1946 4.575L65.2996 12.12H64.0246L61.0096 4.575L60.3346 4.38V3.675ZM71.32 2.175C71 2.175 70.76 2.085 70.6 1.905C70.44 1.725 70.36 1.495 70.36 1.215C70.36 0.894999 70.455 0.629999 70.645 0.42C70.845 0.21 71.115 0.104999 71.455 0.104999C71.795 0.104999 72.045 0.194999 72.205 0.374999C72.365 0.555 72.445 0.785 72.445 1.065C72.445 1.405 72.345 1.675 72.145 1.875C71.955 2.075 71.685 2.175 71.335 2.175H71.32ZM70.72 4.83L69.58 4.56V3.765L71.905 3.48H71.935L72.28 3.75V11.145L73.48 11.265V12H69.505V11.265L70.72 11.13V4.83ZM77.1101 12.15C76.5401 12.15 76.1151 12.02 75.8351 11.76C75.5551 11.5 75.4151 11.055 75.4151 10.425V4.665H74.3351V3.99C74.3851 3.98 74.5251 3.945 74.7551 3.885C74.9851 3.825 75.1401 3.77 75.2201 3.72C75.3801 3.63 75.5051 3.45 75.5951 3.18C75.6751 2.99 75.7701 2.685 75.8801 2.265C75.9901 1.845 76.0551 1.595 76.0751 1.515H76.9601L76.9901 3.675H79.4951V4.665H76.9901V9.27C76.9901 9.84 77.0051 10.24 77.0351 10.47C77.0751 10.7 77.1501 10.85 77.2601 10.92C77.3801 10.99 77.5801 11.025 77.8601 11.025C78.1301 11.025 78.4251 10.99 78.7451 10.92C79.0751 10.85 79.3301 10.775 79.5101 10.695L79.7351 11.37C79.4951 11.55 79.1051 11.725 78.5651 11.895C78.0351 12.065 77.5501 12.15 77.1101 12.15ZM81.8685 15.735C81.6985 15.735 81.5285 15.725 81.3585 15.705C81.1985 15.685 81.0835 15.655 81.0135 15.615V14.31C81.0735 14.35 81.1885 14.38 81.3585 14.4C81.5385 14.42 81.7085 14.43 81.8685 14.43C82.3485 14.43 82.7685 14.26 83.1285 13.92C83.4985 13.59 83.8535 12.95 84.1935 12H83.4735L80.6235 4.575L79.9335 4.38V3.675H83.5485V4.38L82.3935 4.56L83.8635 8.985L84.5535 11.175L85.1985 8.97L86.5335 4.56L85.5285 4.38V3.675H88.5435V4.38L87.7935 4.56C86.3235 9.06 85.4585 11.615 85.1985 12.225C84.8585 13.085 84.5485 13.755 84.2685 14.235C83.9885 14.725 83.6585 15.095 83.2785 15.345C82.8985 15.605 82.4285 15.735 81.8685 15.735Z" fill="white"/>
</svg>
