<svg width="62" height="13" viewBox="0 0 62 13" fill="none" xmlns="http://www.w3.org/2000/svg">
<path d="M4.12686 12.165C3.60686 12.165 3.14186 12.12 2.73186 12.03C2.32186 11.94 1.87186 11.82 1.38186 11.67C1.08186 11.56 0.856856 11.5 0.706856 11.49L0.826855 8.775H1.78686L2.04186 10.725C2.21186 10.885 2.48686 11.03 2.86686 11.16C3.25686 11.28 3.68186 11.34 4.14186 11.34C4.90186 11.34 5.47686 11.17 5.86686 10.83C6.26686 10.49 6.46686 10.02 6.46686 9.42C6.46686 9.03 6.35686 8.695 6.13686 8.415C5.92686 8.135 5.64186 7.895 5.28186 7.695C4.93186 7.495 4.44686 7.26 3.82686 6.99C3.26686 6.74 2.77686 6.485 2.35686 6.225C1.94686 5.965 1.58686 5.62 1.27686 5.19C0.976855 4.75 0.826855 4.225 0.826855 3.615C0.826855 3.065 0.971856 2.575 1.26186 2.145C1.56186 1.705 1.98686 1.36 2.53686 1.11C3.09686 0.859999 3.74686 0.734999 4.48686 0.734999C4.94686 0.734999 5.35186 0.769999 5.70186 0.84C6.06186 0.909999 6.46686 1.005 6.91686 1.125C7.11686 1.195 7.28686 1.24 7.42686 1.26L7.33686 3.78H6.42186L6.12186 1.935C6.02186 1.835 5.81186 1.74 5.49186 1.65C5.18186 1.56 4.84186 1.515 4.47186 1.515C3.78186 1.515 3.25686 1.66 2.89686 1.95C2.54686 2.24 2.37186 2.66 2.37186 3.21C2.37186 3.61 2.47686 3.945 2.68686 4.215C2.90686 4.485 3.17686 4.715 3.49686 4.905C3.81686 5.095 4.32686 5.355 5.02686 5.685C5.67686 5.995 6.20686 6.275 6.61686 6.525C7.02686 6.775 7.37686 7.105 7.66686 7.515C7.96686 7.915 8.11686 8.395 8.11686 8.955C8.11686 9.485 7.96686 9.995 7.66686 10.485C7.37686 10.975 6.92686 11.38 6.31686 11.7C5.71686 12.01 4.98686 12.165 4.12686 12.165ZM10.8881 1.785L9.49311 1.605V0.855H13.9031V1.605L12.5081 1.785V11.115L13.9031 11.28V12H9.50811V11.265L10.8881 11.115V1.785ZM20.5829 12.165C19.5029 12.165 18.5679 11.925 17.7779 11.445C16.9979 10.965 16.4029 10.305 15.9929 9.465C15.5829 8.615 15.3779 7.655 15.3779 6.585C15.3779 5.355 15.6179 4.3 16.0979 3.42C16.5879 2.54 17.2629 1.875 18.1229 1.425C18.9829 0.964999 19.9629 0.734999 21.0629 0.734999C22.0729 0.734999 23.2379 0.889999 24.5579 1.2L24.4229 3.795H23.3579L22.9979 1.995C22.8579 1.885 22.6179 1.78 22.2779 1.68C21.9479 1.58 21.5029 1.53 20.9429 1.53C20.2129 1.53 19.5679 1.71 19.0079 2.07C18.4479 2.43 18.0079 2.965 17.6879 3.675C17.3779 4.385 17.2229 5.245 17.2229 6.255C17.2229 7.185 17.3479 8.035 17.5979 8.805C17.8579 9.575 18.2479 10.195 18.7679 10.665C19.2979 11.125 19.9429 11.355 20.7029 11.355C21.1829 11.355 21.6379 11.3 22.0679 11.19C22.4979 11.07 22.8279 10.915 23.0579 10.725V7.38L21.1679 7.23V6.345H25.5479V7.23L24.6779 7.365V11.4C24.4579 11.41 24.0929 11.495 23.5829 11.655C23.0629 11.815 22.5729 11.94 22.1129 12.03C21.6529 12.12 21.1429 12.165 20.5829 12.165ZM27.7864 1.785L26.5864 1.605V0.855H29.3764L34.3714 8.175L35.2114 9.765V1.785L33.9064 1.605V0.855H37.4464V1.605L36.2464 1.785V12H35.0614L29.9614 4.515L28.8064 2.535V11.115L30.2314 11.265V12H26.5864V11.265L27.7864 11.1V1.785ZM47.0934 12.12C45.6234 12.12 44.5384 11.73 43.8384 10.95C43.1484 10.16 42.8034 8.94 42.8034 7.29V1.785L41.7384 1.605V0.855H45.7434V1.605L44.4684 1.8V7.455C44.4684 8.815 44.7084 9.795 45.1884 10.395C45.6784 10.995 46.3784 11.295 47.2884 11.295C48.1984 11.295 48.8784 10.975 49.3284 10.335C49.7884 9.695 50.0184 8.765 50.0184 7.545V1.8L48.7584 1.605V0.855H52.2534V1.605L51.1584 1.785V7.47C51.1584 9.03 50.7884 10.195 50.0484 10.965C49.3084 11.735 48.3234 12.12 47.0934 12.12ZM54.4469 1.785L53.2769 1.605V0.855H55.2719C55.6319 0.855 55.9869 0.839999 56.3369 0.809999C56.8769 0.769999 57.3869 0.749999 57.8669 0.749999C59.3169 0.76 60.3419 1.03 60.9419 1.56C61.5419 2.09 61.8419 2.89 61.8419 3.96C61.8419 4.76 61.6569 5.455 61.2869 6.045C60.9169 6.635 60.4019 7.085 59.7419 7.395C59.0919 7.705 58.3419 7.86 57.4919 7.86C57.2019 7.86 56.9069 7.855 56.6069 7.845C56.3069 7.825 56.1219 7.81 56.0519 7.8V11.1L58.1069 11.265V12H53.2019V11.265L54.4469 11.115V1.785ZM56.0519 6.975C56.3319 7.025 56.8119 7.05 57.4919 7.05C58.2819 7.05 58.9219 6.81 59.4119 6.33C59.9119 5.85 60.1619 5.065 60.1619 3.975C60.1619 3.115 59.9469 2.5 59.5169 2.13C59.0869 1.75 58.4169 1.56 57.5069 1.56C57.1869 1.56 56.8469 1.58 56.4869 1.62C56.2669 1.64 56.1219 1.65 56.0519 1.65V6.975Z" fill="#FAF4F4"/>
</svg>
