<svg width="48" height="13" viewBox="0 0 48 13" fill="none" xmlns="http://www.w3.org/2000/svg">
<path d="M0.910391 0.855H4.90039V1.605L3.56539 1.785L6.04039 8.82L6.59539 10.65L7.09039 8.79L9.32539 1.785L8.14039 1.605V0.855H11.4854V1.605L10.5254 1.785L6.97039 12.12H5.66539L1.82539 1.785L0.910391 1.605V0.855ZM13.6442 2.175C13.3242 2.175 13.0842 2.085 12.9242 1.905C12.7642 1.725 12.6842 1.495 12.6842 1.215C12.6842 0.894999 12.7792 0.629999 12.9692 0.42C13.1692 0.21 13.4392 0.104999 13.7792 0.104999C14.1192 0.104999 14.3692 0.194999 14.5292 0.374999C14.6892 0.555 14.7692 0.785 14.7692 1.065C14.7692 1.405 14.6692 1.675 14.4692 1.875C14.2792 2.075 14.0092 2.175 13.6592 2.175H13.6442ZM13.0442 4.83L11.9042 4.56V3.765L14.2292 3.48H14.2592L14.6042 3.75V11.145L15.8042 11.265V12H11.8292V11.265L13.0442 11.13V4.83ZM18.2643 10.8C18.3643 10.95 18.5743 11.085 18.8943 11.205C19.2243 11.325 19.5693 11.385 19.9293 11.385C20.4993 11.385 20.9193 11.275 21.1893 11.055C21.4593 10.835 21.5943 10.53 21.5943 10.14C21.5943 9.87 21.5093 9.635 21.3393 9.435C21.1693 9.235 20.9293 9.06 20.6193 8.91C20.3193 8.75 19.8843 8.56 19.3143 8.34C18.5443 8.05 17.9793 7.705 17.6193 7.305C17.2693 6.895 17.0943 6.36 17.0943 5.7C17.0943 5.26 17.2243 4.875 17.4843 4.545C17.7543 4.215 18.1193 3.96 18.5793 3.78C19.0493 3.59 19.5693 3.495 20.1393 3.495C20.5993 3.495 20.9993 3.53 21.3393 3.6C21.6893 3.67 21.9693 3.74 22.1793 3.81C22.3893 3.88 22.5293 3.925 22.5993 3.945V5.805H21.6843L21.3843 4.695C21.3243 4.575 21.1643 4.475 20.9043 4.395C20.6443 4.305 20.3543 4.26 20.0343 4.26C19.5843 4.26 19.2193 4.36 18.9393 4.56C18.6693 4.76 18.5343 5.03 18.5343 5.37C18.5343 5.67 18.6043 5.92 18.7443 6.12C18.8943 6.31 19.0793 6.465 19.2993 6.585C19.5193 6.705 19.8193 6.845 20.1993 7.005L20.4993 7.125C21.0593 7.345 21.5143 7.555 21.8643 7.755C22.2143 7.955 22.5043 8.22 22.7343 8.55C22.9743 8.87 23.0943 9.265 23.0943 9.735C23.0943 10.475 22.8043 11.065 22.2243 11.505C21.6543 11.945 20.8693 12.165 19.8693 12.165C19.3793 12.165 18.8643 12.1 18.3243 11.97C17.7943 11.83 17.3593 11.69 17.0193 11.55V9.63H17.9943L18.2643 10.8ZM26.2126 2.175C25.8926 2.175 25.6526 2.085 25.4926 1.905C25.3326 1.725 25.2526 1.495 25.2526 1.215C25.2526 0.894999 25.3476 0.629999 25.5376 0.42C25.7376 0.21 26.0076 0.104999 26.3476 0.104999C26.6876 0.104999 26.9376 0.194999 27.0976 0.374999C27.2576 0.555 27.3376 0.785 27.3376 1.065C27.3376 1.405 27.2376 1.675 27.0376 1.875C26.8476 2.075 26.5776 2.175 26.2276 2.175H26.2126ZM25.6126 4.83L24.4726 4.56V3.765L26.7976 3.48H26.8276L27.1726 3.75V11.145L28.3726 11.265V12H24.3976V11.265L25.6126 11.13V4.83ZM29.4377 7.815C29.4377 6.915 29.6227 6.135 29.9927 5.475C30.3627 4.815 30.8477 4.315 31.4477 3.975C32.0577 3.625 32.7077 3.45 33.3977 3.45C34.6577 3.45 35.6027 3.85 36.2327 4.65C36.8727 5.45 37.1927 6.5 37.1927 7.8C37.1927 8.71 37.0077 9.495 36.6377 10.155C36.2677 10.815 35.7777 11.315 35.1677 11.655C34.5677 11.995 33.9227 12.165 33.2327 12.165C31.9727 12.165 31.0227 11.765 30.3827 10.965C29.7527 10.165 29.4377 9.115 29.4377 7.815ZM33.3227 11.31C34.0127 11.31 34.5427 11.025 34.9127 10.455C35.2827 9.885 35.4677 9.04 35.4677 7.92C35.4677 6.81 35.2977 5.93 34.9577 5.28C34.6177 4.63 34.0727 4.305 33.3227 4.305C32.6327 4.305 32.0977 4.59 31.7177 5.16C31.3477 5.73 31.1627 6.575 31.1627 7.695C31.1627 8.805 31.3377 9.685 31.6877 10.335C32.0377 10.985 32.5827 11.31 33.3227 11.31ZM39.4637 4.83L38.3837 4.56V3.75L40.5287 3.48H40.5737L40.8887 3.75V4.38L40.8737 4.74C41.2337 4.42 41.7087 4.13 42.2987 3.87C42.8887 3.61 43.4537 3.48 43.9937 3.48C44.6237 3.48 45.1087 3.6 45.4487 3.84C45.7987 4.08 46.0437 4.45 46.1837 4.95C46.3237 5.44 46.3937 6.105 46.3937 6.945V11.145L47.4437 11.25V12H43.8887V11.265L44.8187 11.145V6.93C44.8187 6.34 44.7787 5.88 44.6987 5.55C44.6187 5.21 44.4687 4.96 44.2487 4.8C44.0287 4.63 43.7087 4.545 43.2887 4.545C42.9287 4.545 42.5437 4.635 42.1337 4.815C41.7237 4.995 41.3587 5.205 41.0387 5.445V11.13L42.0587 11.265V12H38.5187V11.265L39.4637 11.13V4.83Z" fill="white"/>
</svg>
