<svg width="25" height="25" viewBox="0 0 25 25" fill="none" xmlns="http://www.w3.org/2000/svg">
<path d="M10.4168 15.6252L15.8231 12.5002L10.4168 9.37516V15.6252ZM22.4585 7.46891C22.5939 7.9585 22.6877 8.61475 22.7502 9.44808C22.8231 10.2814 22.8543 11.0002 22.8543 11.6252L22.9168 12.5002C22.9168 14.7814 22.7502 16.4585 22.4585 17.5314C22.1981 18.4689 21.5939 19.0731 20.6564 19.3335C20.1668 19.4689 19.271 19.5627 17.896 19.6252C16.5418 19.6981 15.3022 19.7293 14.1564 19.7293L12.5002 19.7918C8.13558 19.7918 5.41683 19.6252 4.34391 19.3335C3.40641 19.0731 2.80225 18.4689 2.54183 17.5314C2.40641 17.0418 2.31266 16.3856 2.25016 15.5522C2.17725 14.7189 2.146 14.0002 2.146 13.3752L2.0835 12.5002C2.0835 10.2189 2.25016 8.54183 2.54183 7.46891C2.80225 6.53141 3.40641 5.92725 4.34391 5.66683C4.8335 5.53141 5.72933 5.43766 7.10433 5.37516C8.4585 5.30225 9.69808 5.271 10.8439 5.271L12.5002 5.2085C16.8647 5.2085 19.5835 5.37516 20.6564 5.66683C21.5939 5.92725 22.1981 6.53141 22.4585 7.46891Z" fill="white"/>
</svg>
