<svg width="1440" height="268" viewBox="0 0 1440 268" fill="none" xmlns="http://www.w3.org/2000/svg">
<rect width="1440" height="266" fill="#F2F2F2"/>
<rect x="380" y="114" width="80" height="80" rx="40" fill="#0500FF"/>
<rect x="500" y="114" width="80" height="80" rx="40" fill="#D7DB08"/>
<rect x="620" y="114" width="80" height="80" rx="40" fill="#FF0000"/>
<rect x="740" y="114" width="80" height="80" rx="40" fill="#52FF00"/>
<rect x="860" y="114" width="80" height="80" rx="40" fill="#FA00FF"/>
<rect x="980" y="114" width="80" height="80" rx="40" fill="black"/>
<path d="M596.648 64.8438L600.035 52.9375H601.676L600.727 57.5664L597.082 70H595.453L596.648 64.8438ZM593.145 52.9375L595.84 64.6094L596.648 70H595.031L590.895 52.9375H593.145ZM606.059 64.5977L608.695 52.9375H610.957L606.832 70H605.215L606.059 64.5977ZM601.922 52.9375L605.215 64.8438L606.41 70H604.781L601.266 57.5664L600.305 52.9375H601.922ZM618.023 70.2344C617.141 70.2344 616.34 70.0859 615.621 69.7891C614.91 69.4844 614.297 69.0586 613.781 68.5117C613.273 67.9648 612.883 67.3164 612.609 66.5664C612.336 65.8164 612.199 64.9961 612.199 64.1055V63.6133C612.199 62.582 612.352 61.6641 612.656 60.8594C612.961 60.0469 613.375 59.3594 613.898 58.7969C614.422 58.2344 615.016 57.8086 615.68 57.5195C616.344 57.2305 617.031 57.0859 617.742 57.0859C618.648 57.0859 619.43 57.2422 620.086 57.5547C620.75 57.8672 621.293 58.3047 621.715 58.8672C622.137 59.4219 622.449 60.0781 622.652 60.8359C622.855 61.5859 622.957 62.4062 622.957 63.2969V64.2695H613.488V62.5H620.789V62.3359C620.758 61.7734 620.641 61.2266 620.438 60.6953C620.242 60.1641 619.93 59.7266 619.5 59.3828C619.07 59.0391 618.484 58.8672 617.742 58.8672C617.25 58.8672 616.797 58.9727 616.383 59.1836C615.969 59.3867 615.613 59.6914 615.316 60.0977C615.02 60.5039 614.789 61 614.625 61.5859C614.461 62.1719 614.379 62.8477 614.379 63.6133V64.1055C614.379 64.707 614.461 65.2734 614.625 65.8047C614.797 66.3281 615.043 66.7891 615.363 67.1875C615.691 67.5859 616.086 67.8984 616.547 68.125C617.016 68.3516 617.547 68.4648 618.141 68.4648C618.906 68.4648 619.555 68.3086 620.086 67.9961C620.617 67.6836 621.082 67.2656 621.48 66.7422L622.793 67.7852C622.52 68.1992 622.172 68.5938 621.75 68.9688C621.328 69.3438 620.809 69.6484 620.191 69.8828C619.582 70.1172 618.859 70.2344 618.023 70.2344ZM627.844 52V70H625.664V52H627.844ZM636.398 68.4531C636.914 68.4531 637.391 68.3477 637.828 68.1367C638.266 67.9258 638.625 67.6367 638.906 67.2695C639.188 66.8945 639.348 66.4688 639.387 65.9922H641.449C641.41 66.7422 641.156 67.4414 640.688 68.0898C640.227 68.7305 639.621 69.25 638.871 69.6484C638.121 70.0391 637.297 70.2344 636.398 70.2344C635.445 70.2344 634.613 70.0664 633.902 69.7305C633.199 69.3945 632.613 68.9336 632.145 68.3477C631.684 67.7617 631.336 67.0898 631.102 66.332C630.875 65.5664 630.762 64.7578 630.762 63.9062V63.4141C630.762 62.5625 630.875 61.7578 631.102 61C631.336 60.2344 631.684 59.5586 632.145 58.9727C632.613 58.3867 633.199 57.9258 633.902 57.5898C634.613 57.2539 635.445 57.0859 636.398 57.0859C637.391 57.0859 638.258 57.2891 639 57.6953C639.742 58.0938 640.324 58.6406 640.746 59.3359C641.176 60.0234 641.41 60.8047 641.449 61.6797H639.387C639.348 61.1562 639.199 60.6836 638.941 60.2617C638.691 59.8398 638.348 59.5039 637.91 59.2539C637.48 58.9961 636.977 58.8672 636.398 58.8672C635.734 58.8672 635.176 59 634.723 59.2656C634.277 59.5234 633.922 59.875 633.656 60.3203C633.398 60.7578 633.211 61.2461 633.094 61.7852C632.984 62.3164 632.93 62.8594 632.93 63.4141V63.9062C632.93 64.4609 632.984 65.0078 633.094 65.5469C633.203 66.0859 633.387 66.5742 633.645 67.0117C633.91 67.4492 634.266 67.8008 634.711 68.0664C635.164 68.3242 635.727 68.4531 636.398 68.4531ZM643.312 63.8008V63.5312C643.312 62.6172 643.445 61.7695 643.711 60.9883C643.977 60.1992 644.359 59.5156 644.859 58.9375C645.359 58.3516 645.965 57.8984 646.676 57.5781C647.387 57.25 648.184 57.0859 649.066 57.0859C649.957 57.0859 650.758 57.25 651.469 57.5781C652.188 57.8984 652.797 58.3516 653.297 58.9375C653.805 59.5156 654.191 60.1992 654.457 60.9883C654.723 61.7695 654.855 62.6172 654.855 63.5312V63.8008C654.855 64.7148 654.723 65.5625 654.457 66.3438C654.191 67.125 653.805 67.8086 653.297 68.3945C652.797 68.9727 652.191 69.4258 651.48 69.7539C650.777 70.0742 649.98 70.2344 649.09 70.2344C648.199 70.2344 647.398 70.0742 646.688 69.7539C645.977 69.4258 645.367 68.9727 644.859 68.3945C644.359 67.8086 643.977 67.125 643.711 66.3438C643.445 65.5625 643.312 64.7148 643.312 63.8008ZM645.48 63.5312V63.8008C645.48 64.4336 645.555 65.0312 645.703 65.5938C645.852 66.1484 646.074 66.6406 646.371 67.0703C646.676 67.5 647.055 67.8398 647.508 68.0898C647.961 68.332 648.488 68.4531 649.09 68.4531C649.684 68.4531 650.203 68.332 650.648 68.0898C651.102 67.8398 651.477 67.5 651.773 67.0703C652.07 66.6406 652.293 66.1484 652.441 65.5938C652.598 65.0312 652.676 64.4336 652.676 63.8008V63.5312C652.676 62.9062 652.598 62.3164 652.441 61.7617C652.293 61.1992 652.066 60.7031 651.762 60.2734C651.465 59.8359 651.09 59.4922 650.637 59.2422C650.191 58.9922 649.668 58.8672 649.066 58.8672C648.473 58.8672 647.949 58.9922 647.496 59.2422C647.051 59.4922 646.676 59.8359 646.371 60.2734C646.074 60.7031 645.852 61.1992 645.703 61.7617C645.555 62.3164 645.48 62.9062 645.48 63.5312ZM659.73 59.8398V70H657.551V57.3203H659.613L659.73 59.8398ZM659.285 63.1797L658.277 63.1445C658.285 62.2773 658.398 61.4766 658.617 60.7422C658.836 60 659.16 59.3555 659.59 58.8086C660.02 58.2617 660.555 57.8398 661.195 57.543C661.836 57.2383 662.578 57.0859 663.422 57.0859C664.016 57.0859 664.562 57.1719 665.062 57.3438C665.562 57.5078 665.996 57.7695 666.363 58.1289C666.73 58.4883 667.016 58.9492 667.219 59.5117C667.422 60.0742 667.523 60.7539 667.523 61.5508V70H665.355V61.6562C665.355 60.9922 665.242 60.4609 665.016 60.0625C664.797 59.6641 664.484 59.375 664.078 59.1953C663.672 59.0078 663.195 58.9141 662.648 58.9141C662.008 58.9141 661.473 59.0273 661.043 59.2539C660.613 59.4805 660.27 59.793 660.012 60.1914C659.754 60.5898 659.566 61.0469 659.449 61.5625C659.34 62.0703 659.285 62.6094 659.285 63.1797ZM667.5 61.9844L666.047 62.4297C666.055 61.7344 666.168 61.0664 666.387 60.4258C666.613 59.7852 666.938 59.2148 667.359 58.7148C667.789 58.2148 668.316 57.8203 668.941 57.5312C669.566 57.2344 670.281 57.0859 671.086 57.0859C671.766 57.0859 672.367 57.1758 672.891 57.3555C673.422 57.5352 673.867 57.8125 674.227 58.1875C674.594 58.5547 674.871 59.0273 675.059 59.6055C675.246 60.1836 675.34 60.8711 675.34 61.668V70H673.16V61.6445C673.16 60.9336 673.047 60.3828 672.82 59.9922C672.602 59.5938 672.289 59.3164 671.883 59.1602C671.484 58.9961 671.008 58.9141 670.453 58.9141C669.977 58.9141 669.555 58.9961 669.188 59.1602C668.82 59.3242 668.512 59.5508 668.262 59.8398C668.012 60.1211 667.82 60.4453 667.688 60.8125C667.562 61.1797 667.5 61.5703 667.5 61.9844ZM683.883 70.2344C683 70.2344 682.199 70.0859 681.48 69.7891C680.77 69.4844 680.156 69.0586 679.641 68.5117C679.133 67.9648 678.742 67.3164 678.469 66.5664C678.195 65.8164 678.059 64.9961 678.059 64.1055V63.6133C678.059 62.582 678.211 61.6641 678.516 60.8594C678.82 60.0469 679.234 59.3594 679.758 58.7969C680.281 58.2344 680.875 57.8086 681.539 57.5195C682.203 57.2305 682.891 57.0859 683.602 57.0859C684.508 57.0859 685.289 57.2422 685.945 57.5547C686.609 57.8672 687.152 58.3047 687.574 58.8672C687.996 59.4219 688.309 60.0781 688.512 60.8359C688.715 61.5859 688.816 62.4062 688.816 63.2969V64.2695H679.348V62.5H686.648V62.3359C686.617 61.7734 686.5 61.2266 686.297 60.6953C686.102 60.1641 685.789 59.7266 685.359 59.3828C684.93 59.0391 684.344 58.8672 683.602 58.8672C683.109 58.8672 682.656 58.9727 682.242 59.1836C681.828 59.3867 681.473 59.6914 681.176 60.0977C680.879 60.5039 680.648 61 680.484 61.5859C680.32 62.1719 680.238 62.8477 680.238 63.6133V64.1055C680.238 64.707 680.32 65.2734 680.484 65.8047C680.656 66.3281 680.902 66.7891 681.223 67.1875C681.551 67.5859 681.945 67.8984 682.406 68.125C682.875 68.3516 683.406 68.4648 684 68.4648C684.766 68.4648 685.414 68.3086 685.945 67.9961C686.477 67.6836 686.941 67.2656 687.34 66.7422L688.652 67.7852C688.379 68.1992 688.031 68.5938 687.609 68.9688C687.188 69.3438 686.668 69.6484 686.051 69.8828C685.441 70.1172 684.719 70.2344 683.883 70.2344ZM703.465 52.9375V70H701.238V52.9375H703.465ZM708.949 52.9375V54.7891H695.766V52.9375H708.949ZM709.406 63.8008V63.5312C709.406 62.6172 709.539 61.7695 709.805 60.9883C710.07 60.1992 710.453 59.5156 710.953 58.9375C711.453 58.3516 712.059 57.8984 712.77 57.5781C713.48 57.25 714.277 57.0859 715.16 57.0859C716.051 57.0859 716.852 57.25 717.562 57.5781C718.281 57.8984 718.891 58.3516 719.391 58.9375C719.898 59.5156 720.285 60.1992 720.551 60.9883C720.816 61.7695 720.949 62.6172 720.949 63.5312V63.8008C720.949 64.7148 720.816 65.5625 720.551 66.3438C720.285 67.125 719.898 67.8086 719.391 68.3945C718.891 68.9727 718.285 69.4258 717.574 69.7539C716.871 70.0742 716.074 70.2344 715.184 70.2344C714.293 70.2344 713.492 70.0742 712.781 69.7539C712.07 69.4258 711.461 68.9727 710.953 68.3945C710.453 67.8086 710.07 67.125 709.805 66.3438C709.539 65.5625 709.406 64.7148 709.406 63.8008ZM711.574 63.5312V63.8008C711.574 64.4336 711.648 65.0312 711.797 65.5938C711.945 66.1484 712.168 66.6406 712.465 67.0703C712.77 67.5 713.148 67.8398 713.602 68.0898C714.055 68.332 714.582 68.4531 715.184 68.4531C715.777 68.4531 716.297 68.332 716.742 68.0898C717.195 67.8398 717.57 67.5 717.867 67.0703C718.164 66.6406 718.387 66.1484 718.535 65.5938C718.691 65.0312 718.77 64.4336 718.77 63.8008V63.5312C718.77 62.9062 718.691 62.3164 718.535 61.7617C718.387 61.1992 718.16 60.7031 717.855 60.2734C717.559 59.8359 717.184 59.4922 716.73 59.2422C716.285 58.9922 715.762 58.8672 715.16 58.8672C714.566 58.8672 714.043 58.9922 713.59 59.2422C713.145 59.4922 712.77 59.8359 712.465 60.2734C712.168 60.7031 711.945 61.1992 711.797 61.7617C711.648 62.3164 711.574 62.9062 711.574 63.5312ZM740.25 64.5742H742.5C742.383 65.6523 742.074 66.6172 741.574 67.4688C741.074 68.3203 740.367 68.9961 739.453 69.4961C738.539 69.9883 737.398 70.2344 736.031 70.2344C735.031 70.2344 734.121 70.0469 733.301 69.6719C732.488 69.2969 731.789 68.7656 731.203 68.0781C730.617 67.3828 730.164 66.5508 729.844 65.582C729.531 64.6055 729.375 63.5195 729.375 62.3242V60.625C729.375 59.4297 729.531 58.3477 729.844 57.3789C730.164 56.4023 730.621 55.5664 731.215 54.8711C731.816 54.1758 732.539 53.6406 733.383 53.2656C734.227 52.8906 735.176 52.7031 736.23 52.7031C737.52 52.7031 738.609 52.9453 739.5 53.4297C740.391 53.9141 741.082 54.5859 741.574 55.4453C742.074 56.2969 742.383 57.2852 742.5 58.4102H740.25C740.141 57.6133 739.938 56.9297 739.641 56.3594C739.344 55.7812 738.922 55.3359 738.375 55.0234C737.828 54.7109 737.113 54.5547 736.23 54.5547C735.473 54.5547 734.805 54.6992 734.227 54.9883C733.656 55.2773 733.176 55.6875 732.785 56.2188C732.402 56.75 732.113 57.3867 731.918 58.1289C731.723 58.8711 731.625 59.6953 731.625 60.6016V62.3242C731.625 63.1602 731.711 63.9453 731.883 64.6797C732.062 65.4141 732.332 66.0586 732.691 66.6133C733.051 67.168 733.508 67.6055 734.062 67.9258C734.617 68.2383 735.273 68.3945 736.031 68.3945C736.992 68.3945 737.758 68.2422 738.328 67.9375C738.898 67.6328 739.328 67.1953 739.617 66.625C739.914 66.0547 740.125 65.3711 740.25 64.5742ZM752.73 67.832V61.3047C752.73 60.8047 752.629 60.3711 752.426 60.0039C752.23 59.6289 751.934 59.3398 751.535 59.1367C751.137 58.9336 750.645 58.832 750.059 58.832C749.512 58.832 749.031 58.9258 748.617 59.1133C748.211 59.3008 747.891 59.5469 747.656 59.8516C747.43 60.1562 747.316 60.4844 747.316 60.8359H745.148C745.148 60.3828 745.266 59.9336 745.5 59.4883C745.734 59.043 746.07 58.6406 746.508 58.2812C746.953 57.9141 747.484 57.625 748.102 57.4141C748.727 57.1953 749.422 57.0859 750.188 57.0859C751.109 57.0859 751.922 57.2422 752.625 57.5547C753.336 57.8672 753.891 58.3398 754.289 58.9727C754.695 59.5977 754.898 60.3828 754.898 61.3281V67.2344C754.898 67.6562 754.934 68.1055 755.004 68.582C755.082 69.0586 755.195 69.4688 755.344 69.8125V70H753.082C752.973 69.75 752.887 69.418 752.824 69.0039C752.762 68.582 752.73 68.1914 752.73 67.832ZM753.105 62.3125L753.129 63.8359H750.938C750.32 63.8359 749.77 63.8867 749.285 63.9883C748.801 64.082 748.395 64.2266 748.066 64.4219C747.738 64.6172 747.488 64.8633 747.316 65.1602C747.145 65.4492 747.059 65.7891 747.059 66.1797C747.059 66.5781 747.148 66.9414 747.328 67.2695C747.508 67.5977 747.777 67.8594 748.137 68.0547C748.504 68.2422 748.953 68.3359 749.484 68.3359C750.148 68.3359 750.734 68.1953 751.242 67.9141C751.75 67.6328 752.152 67.2891 752.449 66.8828C752.754 66.4766 752.918 66.082 752.941 65.6992L753.867 66.7422C753.812 67.0703 753.664 67.4336 753.422 67.832C753.18 68.2305 752.855 68.6133 752.449 68.9805C752.051 69.3398 751.574 69.6406 751.02 69.8828C750.473 70.1172 749.855 70.2344 749.168 70.2344C748.309 70.2344 747.555 70.0664 746.906 69.7305C746.266 69.3945 745.766 68.9453 745.406 68.3828C745.055 67.8125 744.879 67.1758 744.879 66.4727C744.879 65.793 745.012 65.1953 745.277 64.6797C745.543 64.1562 745.926 63.7227 746.426 63.3789C746.926 63.0273 747.527 62.7617 748.23 62.582C748.934 62.4023 749.719 62.3125 750.586 62.3125H753.105ZM760.477 60.0273V70H758.309V57.3203H760.359L760.477 60.0273ZM759.961 63.1797L759.059 63.1445C759.066 62.2773 759.195 61.4766 759.445 60.7422C759.695 60 760.047 59.3555 760.5 58.8086C760.953 58.2617 761.492 57.8398 762.117 57.543C762.75 57.2383 763.449 57.0859 764.215 57.0859C764.84 57.0859 765.402 57.1719 765.902 57.3438C766.402 57.5078 766.828 57.7734 767.18 58.1406C767.539 58.5078 767.812 58.9844 768 59.5703C768.188 60.1484 768.281 60.8555 768.281 61.6914V70H766.102V61.668C766.102 61.0039 766.004 60.4727 765.809 60.0742C765.613 59.668 765.328 59.375 764.953 59.1953C764.578 59.0078 764.117 58.9141 763.57 58.9141C763.031 58.9141 762.539 59.0273 762.094 59.2539C761.656 59.4805 761.277 59.793 760.957 60.1914C760.645 60.5898 760.398 61.0469 760.219 61.5625C760.047 62.0703 759.961 62.6094 759.961 63.1797ZM773.742 60.0273V70H771.574V57.3203H773.625L773.742 60.0273ZM773.227 63.1797L772.324 63.1445C772.332 62.2773 772.461 61.4766 772.711 60.7422C772.961 60 773.312 59.3555 773.766 58.8086C774.219 58.2617 774.758 57.8398 775.383 57.543C776.016 57.2383 776.715 57.0859 777.48 57.0859C778.105 57.0859 778.668 57.1719 779.168 57.3438C779.668 57.5078 780.094 57.7734 780.445 58.1406C780.805 58.5078 781.078 58.9844 781.266 59.5703C781.453 60.1484 781.547 60.8555 781.547 61.6914V70H779.367V61.668C779.367 61.0039 779.27 60.4727 779.074 60.0742C778.879 59.668 778.594 59.375 778.219 59.1953C777.844 59.0078 777.383 58.9141 776.836 58.9141C776.297 58.9141 775.805 59.0273 775.359 59.2539C774.922 59.4805 774.543 59.793 774.223 60.1914C773.91 60.5898 773.664 61.0469 773.484 61.5625C773.312 62.0703 773.227 62.6094 773.227 63.1797ZM784.266 63.8008V63.5312C784.266 62.6172 784.398 61.7695 784.664 60.9883C784.93 60.1992 785.312 59.5156 785.812 58.9375C786.312 58.3516 786.918 57.8984 787.629 57.5781C788.34 57.25 789.137 57.0859 790.02 57.0859C790.91 57.0859 791.711 57.25 792.422 57.5781C793.141 57.8984 793.75 58.3516 794.25 58.9375C794.758 59.5156 795.145 60.1992 795.41 60.9883C795.676 61.7695 795.809 62.6172 795.809 63.5312V63.8008C795.809 64.7148 795.676 65.5625 795.41 66.3438C795.145 67.125 794.758 67.8086 794.25 68.3945C793.75 68.9727 793.145 69.4258 792.434 69.7539C791.73 70.0742 790.934 70.2344 790.043 70.2344C789.152 70.2344 788.352 70.0742 787.641 69.7539C786.93 69.4258 786.32 68.9727 785.812 68.3945C785.312 67.8086 784.93 67.125 784.664 66.3438C784.398 65.5625 784.266 64.7148 784.266 63.8008ZM786.434 63.5312V63.8008C786.434 64.4336 786.508 65.0312 786.656 65.5938C786.805 66.1484 787.027 66.6406 787.324 67.0703C787.629 67.5 788.008 67.8398 788.461 68.0898C788.914 68.332 789.441 68.4531 790.043 68.4531C790.637 68.4531 791.156 68.332 791.602 68.0898C792.055 67.8398 792.43 67.5 792.727 67.0703C793.023 66.6406 793.246 66.1484 793.395 65.5938C793.551 65.0312 793.629 64.4336 793.629 63.8008V63.5312C793.629 62.9062 793.551 62.3164 793.395 61.7617C793.246 61.1992 793.02 60.7031 792.715 60.2734C792.418 59.8359 792.043 59.4922 791.59 59.2422C791.145 58.9922 790.621 58.8672 790.02 58.8672C789.426 58.8672 788.902 58.9922 788.449 59.2422C788.004 59.4922 787.629 59.8359 787.324 60.2734C787.027 60.7031 786.805 61.1992 786.656 61.7617C786.508 62.3164 786.434 62.9062 786.434 63.5312ZM800.695 60.0273V70H798.527V57.3203H800.578L800.695 60.0273ZM800.18 63.1797L799.277 63.1445C799.285 62.2773 799.414 61.4766 799.664 60.7422C799.914 60 800.266 59.3555 800.719 58.8086C801.172 58.2617 801.711 57.8398 802.336 57.543C802.969 57.2383 803.668 57.0859 804.434 57.0859C805.059 57.0859 805.621 57.1719 806.121 57.3438C806.621 57.5078 807.047 57.7734 807.398 58.1406C807.758 58.5078 808.031 58.9844 808.219 59.5703C808.406 60.1484 808.5 60.8555 808.5 61.6914V70H806.32V61.668C806.32 61.0039 806.223 60.4727 806.027 60.0742C805.832 59.668 805.547 59.375 805.172 59.1953C804.797 59.0078 804.336 58.9141 803.789 58.9141C803.25 58.9141 802.758 59.0273 802.312 59.2539C801.875 59.4805 801.496 59.793 801.176 60.1914C800.863 60.5898 800.617 61.0469 800.438 61.5625C800.266 62.0703 800.18 62.6094 800.18 63.1797ZM818.203 62.0195H813.879L813.855 60.2031H817.781C818.43 60.2031 818.996 60.0938 819.48 59.875C819.965 59.6562 820.34 59.3438 820.605 58.9375C820.879 58.5234 821.016 58.0312 821.016 57.4609C821.016 56.8359 820.895 56.3281 820.652 55.9375C820.418 55.5391 820.055 55.25 819.562 55.0703C819.078 54.8828 818.461 54.7891 817.711 54.7891H814.383V70H812.121V52.9375H817.711C818.586 52.9375 819.367 53.0273 820.055 53.207C820.742 53.3789 821.324 53.6523 821.801 54.0273C822.285 54.3945 822.652 54.8633 822.902 55.4336C823.152 56.0039 823.277 56.6875 823.277 57.4844C823.277 58.1875 823.098 58.8242 822.738 59.3945C822.379 59.957 821.879 60.418 821.238 60.7773C820.605 61.1367 819.863 61.3672 819.012 61.4688L818.203 62.0195ZM818.098 70H812.988L814.266 68.1602H818.098C818.816 68.1602 819.426 68.0352 819.926 67.7852C820.434 67.5352 820.82 67.1836 821.086 66.7305C821.352 66.2695 821.484 65.7266 821.484 65.1016C821.484 64.4688 821.371 63.9219 821.145 63.4609C820.918 63 820.562 62.6445 820.078 62.3945C819.594 62.1445 818.969 62.0195 818.203 62.0195H814.98L815.004 60.2031H819.41L819.891 60.8594C820.711 60.9297 821.406 61.1641 821.977 61.5625C822.547 61.9531 822.98 62.4531 823.277 63.0625C823.582 63.6719 823.734 64.3438 823.734 65.0781C823.734 66.1406 823.5 67.0391 823.031 67.7734C822.57 68.5 821.918 69.0547 821.074 69.4375C820.23 69.8125 819.238 70 818.098 70ZM834.223 67.832V61.3047C834.223 60.8047 834.121 60.3711 833.918 60.0039C833.723 59.6289 833.426 59.3398 833.027 59.1367C832.629 58.9336 832.137 58.832 831.551 58.832C831.004 58.832 830.523 58.9258 830.109 59.1133C829.703 59.3008 829.383 59.5469 829.148 59.8516C828.922 60.1562 828.809 60.4844 828.809 60.8359H826.641C826.641 60.3828 826.758 59.9336 826.992 59.4883C827.227 59.043 827.562 58.6406 828 58.2812C828.445 57.9141 828.977 57.625 829.594 57.4141C830.219 57.1953 830.914 57.0859 831.68 57.0859C832.602 57.0859 833.414 57.2422 834.117 57.5547C834.828 57.8672 835.383 58.3398 835.781 58.9727C836.188 59.5977 836.391 60.3828 836.391 61.3281V67.2344C836.391 67.6562 836.426 68.1055 836.496 68.582C836.574 69.0586 836.688 69.4688 836.836 69.8125V70H834.574C834.465 69.75 834.379 69.418 834.316 69.0039C834.254 68.582 834.223 68.1914 834.223 67.832ZM834.598 62.3125L834.621 63.8359H832.43C831.812 63.8359 831.262 63.8867 830.777 63.9883C830.293 64.082 829.887 64.2266 829.559 64.4219C829.23 64.6172 828.98 64.8633 828.809 65.1602C828.637 65.4492 828.551 65.7891 828.551 66.1797C828.551 66.5781 828.641 66.9414 828.82 67.2695C829 67.5977 829.27 67.8594 829.629 68.0547C829.996 68.2422 830.445 68.3359 830.977 68.3359C831.641 68.3359 832.227 68.1953 832.734 67.9141C833.242 67.6328 833.645 67.2891 833.941 66.8828C834.246 66.4766 834.41 66.082 834.434 65.6992L835.359 66.7422C835.305 67.0703 835.156 67.4336 834.914 67.832C834.672 68.2305 834.348 68.6133 833.941 68.9805C833.543 69.3398 833.066 69.6406 832.512 69.8828C831.965 70.1172 831.348 70.2344 830.66 70.2344C829.801 70.2344 829.047 70.0664 828.398 69.7305C827.758 69.3945 827.258 68.9453 826.898 68.3828C826.547 67.8125 826.371 67.1758 826.371 66.4727C826.371 65.793 826.504 65.1953 826.77 64.6797C827.035 64.1562 827.418 63.7227 827.918 63.3789C828.418 63.0273 829.02 62.7617 829.723 62.582C830.426 62.4023 831.211 62.3125 832.078 62.3125H834.598ZM842.156 52V70H839.977V52H842.156ZM847.992 52V70H845.812V52H847.992Z" fill="black"/>
</svg>
